<?xml version="1.0" encoding="UTF-8"?>
<!-- Created with Inkscape (http://www.inkscape.org/) -->
<svg width="1500" height="500" version="1.1" viewBox="0 0 1500 500" xmlns="http://www.w3.org/2000/svg">
 <defs>
  <linearGradient id="linearGradient972" x2="1" gradientTransform="matrix(1007 1.8582 1.8582 -1007 -310.83 373.54)" gradientUnits="userSpaceOnUse">
   <stop stop-color="#abfff5" offset="0"/>
   <stop stop-color="#00c3ff" offset=".99896"/>
   <stop stop-color="#00c3ff" offset="1"/>
  </linearGradient>
 </defs>
 <g transform="translate(69.946 -152.57)">
  <rect x="-69.946" y="152.57" width="1500" height="500" display="none" fill="#fff" stroke="#fff" stroke-width="4"/>
  <g transform="matrix(1.3333 0 0 -1.3333 3.8732 758.02)">
   <g transform="matrix(1.0986 0 0 .59055 -55.364 45.097)">
    <path d="m0 57.566h1024v635h-1024z" fill="url(#linearGradient972)"/>
   </g>
   <g transform="scale(1,-1)" fill="#1a1a1a" stroke-width=".75" aria-label="Alireza Karimi">
    <path d="m291.08-236.75q0.064 0.128 0.128 0.128 0.064 0.064 0 0.192-0.192 0.32-0.448 0.704-0.192 0.384-0.448 0.768h-0.192q0.128-0.32 0.192-0.704 0.128-0.32 0.256-0.64 0.064-0.128 0.192-0.256 0.192-0.064 0.32-0.192zm4.224-10.112q0.064-0.128 0.192-0.32t0.256-0.32h0.256q-1.728 5.12-4.416 10.368-0.192-0.128-0.32-0.256t-0.064-0.192q0.512-0.512 0.576-0.896 0.128-0.384 0.32-0.768 0.256-0.448 0.448-0.896t0.384-0.896q0.32-0.64 0.512-1.216 0.256-0.64 0.576-1.344 0.128-0.384 0.32-0.768 0.256-0.384 0.384-0.704 0.192-0.512 0.32-0.896 0.128-0.448 0.256-0.896zm18.944-59.968q0.32 0 0.704 0.064 0.384 0 0.256 0.512-0.128 0.448-0.192 0.896 0 0.384-0.512 0.896-0.064 0.128-0.128 0.256-0.064 0.064-0.064 0.192-0.32 0.896-0.64 1.728-0.256 0.768-0.576 1.6-0.384 1.088-0.768 2.176t-0.704 2.176q-0.512 1.344-0.96 2.688-0.384 1.344-0.832 2.688-0.192 0.704-0.448 1.408-0.256 0.64-0.448 1.344-0.256 0.704-0.448 1.472-0.128 0.768-0.448 1.536-0.256 0.768-0.576 1.6t-0.64 1.664q-0.448 1.28-0.832 2.496-0.32 1.216-0.832 2.496l-1.728 5.888q-0.128 0.512-0.256 0.768-0.128 0.512-0.256 1.088t-0.32 1.088q-0.128 0.512-0.32 0.96-0.192 0.384-0.384 0.896 0 0.064-0.192 0.256-0.896 0.448-0.192 0.576 0.32 0.128-0.064 0.64-0.128-0.064-0.32-0.064-0.128 0-0.256-0.064-0.128-0.128-0.256-0.192-0.064-0.128 0-0.192 0.192-0.256 0.256-0.448 0.064-0.256 0.064-0.448 0.064-0.256 0.128-0.448 0.128-0.256 0.512-0.512 0.064 0 0.064-0.32 0.064-0.32 0.064-0.576 0-0.32 0.128-0.64 0.128-0.256 0.256-0.512t-0.128-0.384q-0.064-0.064 0-0.192t0.128-0.256q0.128-0.32 0.192-0.704 0.128-0.384 0.128-0.704l1.536-4.864q0.384-1.024 0.64-1.92 0.256-0.96 0.32-1.856l-0.256 0.064q-0.128 0.384-0.256 0.896-0.128 0.32-0.256 0.576-0.064 0.192-0.128 0.448-0.128 0.32-0.192 0.576-0.064 0.192-0.128 0.384-0.064 0.32-0.064 0.96l-1.536 4.544q-0.128 0.32-0.128 0.512t-0.128 0.32q-0.576 0.704-0.64 1.152t0.064 0.96q0 0.256-0.32 0.576-0.64 0.448-0.384 0.768 0.064 0.128-0.064 0.256-0.256 1.152-0.768 2.56-0.128 0.384-0.32 0.768-0.128 0.384-0.32 0.768-0.128 0.384-0.128 0.448-0.064 0.256-0.128 0.512t-0.192 0.512q0 0.32-0.192 0.704h0.064q0.384 0 0.768 0.192 0-0.448 0.256-0.704 0.256-0.32 0.256-0.512 0.064-0.192 0.128-0.448 0.128-0.896 0.384-1.856 0-0.128 0.128-0.192 0.192-0.128 0.32-0.256 0 0.192-0.064 0.448 0 0.256 0.064 0.256 0.64-0.128 0.512 0.128-0.064 0.256-0.192 0.512-0.128 0.32-0.192 0.64t-0.192 0.64q0 0.32-0.192 0.576-0.128 0.192-0.768 0.32 0.448 0.448 0.384 0.832 0.128 0.064 0.192 0.064t0.192 0.064q0.64 0.128 1.024 0.448t0.704 0.704q0.384 0.448 0.704 0.896 0.384 0.448 0.768 0.896 0.064 0.128 0.128 0.32 0.064 0.128 0.064 0.256 0 0.384-0.064 0.832-0.064 0.384 0.256 0.704 0.064 0 0.064 0.192-0.32 0.576-0.64 1.152-0.256 0.576-0.576 1.088-0.128 0.128-0.384 0.192-0.192 0.064-0.384 0.128-0.064-0.192-0.128-0.384t-0.064-0.384q0.064-0.32 0.128-0.512 0.128-0.256 0.256-0.576 0.384-1.536-1.28-1.536-0.448 0.064-0.896 0-0.384-0.128-0.832-0.128-0.128-0.064-0.512-0.064 0 0-0.064 0.064-0.128 0.704-0.384 1.344-0.32 0.896-0.576 1.728-0.256 0.768-0.576 1.664-0.32 0.832-0.576 1.6t-0.512 1.6q-0.256 0-0.32-0.192t-0.064-0.448q0.064-0.32 0.128-0.64 0.128-0.32 0.32-0.512 0.256-1.088 0.448-2.048 0.192-1.024 0.384-1.984 1.088-0.576 1.216-1.152-0.064-0.32-0.128-0.512 0-0.256-0.064-0.512-0.256-0.064-0.576-0.064-0.32-0.064-0.64 0-0.064 0.128-0.064 0.192t-0.064 0.192q-0.128 0.64-0.32 1.28-0.128 0.64-0.32 1.28-0.32 0.832-0.64 1.6-0.256 0.768-0.576 1.6-0.256 0.64-0.448 1.28-0.128 0.576-0.32 1.216-0.192 0.512-0.448 1.088-0.256 0.512-0.256 1.024 0 0.32-0.064 0.64-0.064 0.256-0.192 0.576-0.128 0.128-0.256 0.32-0.064 0.192-0.192 0.32-0.256 0.64-0.448 1.28-0.128 0.576-0.384 1.28-0.128 0.32-0.32 0.704-0.128 0.384-0.32 0.768-0.256 0.512-0.512 1.152-0.192 0.512-0.384 1.024-0.128 0.576-0.256 1.088-0.064 0.128-0.192 0.192-0.064 0.128-0.128 0.256t-0.128 0.32 0 0.32q0.064 0.384 0 0.768 0 0.448-0.704 1.088-0.384 0.512-0.64 0.704-0.128 0.128-0.32 0.192-0.128 0.064-0.32 0.192 0.064-0.128 0-0.256 0-0.064 0.064-0.192 0.256-0.832 0.704-1.792-0.32 0.256-0.512 0.448-0.128 0.256-0.384 0.512-0.128 0.128-0.256 0.256t-0.256 0.256q-0.064-0.128-0.064-0.256 0-0.064-0.064-0.192 0.128-0.256 0.128-0.384 0.128-0.576 0.192-1.152 0.128-0.576 0.448-1.152 0.32-0.896 0.512-1.728 0.256-0.768-0.256-1.28 0-0.192 0.064-0.32l1.344-3.648q0.384-1.28 0.576-2.624 0-0.384-0.064-0.448-0.576-0.384-0.192-1.28 0.32 0 0.512-0.064 0-0.192-0.064-0.256t-0.064-0.192q-0.128-0.256-0.192-0.512t0.064-0.448q0.32-0.32 0.32-0.512t0.064-0.448q-0.064-0.128-0.064-0.256 0.064-0.128 0.064-0.32 0.256-0.768 0.512-1.536 0.32-0.832-0.064-1.408-0.128-0.32-0.128-0.768t0.448-1.024q0.32-0.32 0.448-0.768h-0.064q-0.32 0-0.64 0.064-0.256 0.064-0.576 0.064-1.088 0.128-2.176 0.192-1.024 0-2.112 0.128-0.384 0.064-0.768 0.128t-0.768 0.192q-1.28 0.256-2.688 0.576-1.344 0.32-2.624 0.384-1.088 0.064-2.048 0.384-0.896 0.32-1.856 0.448-0.704 0.128-1.472 0.256-0.704 0.128-1.408 0.256-0.256 0.32-0.512 0.64-0.256 0.256-0.512 0.576-0.448 0.512-0.896 1.088-0.384 0.576-0.832 1.152-0.576 0.704-1.152 1.472-0.512 0.704-1.024 1.408-0.192 0.256-0.384 0.512-0.128 0.256-0.32 0.512-0.512 0.512-1.024 1.024-0.448 0.448-0.96 0.96-0.512 0.576-0.896 1.152t-0.832 1.152q-0.32 0.384-0.704 0.768-0.32 0.384-0.64 0.704h-0.256q0.128-0.192 0.192-0.384 0.128-0.192 0.256-0.32 0.384-0.512 0.768-0.896 0.448-0.448 0.768-0.896 0.256-0.256 0.448-0.512t0.32-0.512q0.448-0.512 0.896-0.896 0.448-0.448 0.832-0.96 0.704-0.896 1.28-1.728 0.64-0.896 1.344-1.792 0.832-1.024 1.472-1.984 0.704-1.024 1.536-2.048-0.448 0.128-0.832 0.192t-0.832 0.192q-0.128 0.064-0.32 0.064-0.32 0.704-1.024 1.024-0.064 0.064-0.128 0.192 0 0.064-0.064 0.128-0.32 0.512-0.704 1.024t-0.768 1.152q-0.128-0.256-0.128-0.384 0-0.192-0.064-0.32-0.448 0.32-0.704 0.576-0.192 0.256 0 0.512 0.512 0.576-0.704 1.472-0.96 0.64-1.408 1.536-0.32 0.704-0.704 1.408-0.32 0.64-1.216 1.28-0.32 0.192-0.576 0.576-0.192 0.32-0.448 0.64-0.384 0.512-0.704 0.96-0.256 0.448-0.704 0.96-0.704 0.768-1.408 1.536t-1.408 1.536q-0.128 0.128-0.128 0.256-0.064 0.128-0.192 0.256-0.384 0.512-0.704 1.024-0.384 0.576-0.832 1.088-0.512 0.448-1.024 0.832t-1.024 0.896q-0.192 0.256-0.32 0.512-0.192 0.256-0.32 0.512-0.128 0.128-0.128 0.192-0.064 0.128-0.192 0.256-0.32 0.32-0.64 0.576t-0.64 0.576q0.064 0.064 0.064 0.064 0 0.064 0.064 0.128 0.32-0.128 0.576-0.192 0.192-0.064 0.512-0.192 0.64-0.256 1.152-0.576 0.576-0.192 0.768-0.704 0.128-0.384 0.448-0.768 0.256-0.384 0.512-0.768 0.128-0.128 0.384-0.256 0.192 0 0.192 0.192v0.832q-0.512 0.256-0.832 0.576-0.704 0.64-1.408 1.28t-1.408 1.28q-1.728 1.664-3.2 1.344-0.064-0.064-0.064-0.32-0.064-0.192 0.064-0.32 0.32-0.448 0.704-0.832 0.32-0.384 0.64-0.832 0.192-0.256 0.32-0.576 0.128-0.256 0.384-0.512 0.64-0.768 1.28-1.536 0.64-0.704 1.28-1.408 0.32-0.448 0.576-0.896 0.256-0.384 0.512-0.832 0.32-0.448 0.576-0.896 0.192-0.448 0.512-0.96 0.512-0.704 1.088-1.344 0.576-0.576 1.088-1.28 0.448-0.512 0.832-1.024 0.32-0.512 0.64-1.024-0.064-0.064-0.192-0.064-0.192 0-0.32 0-0.128-0.064-0.128-0.128t0.256-0.384q0.384-0.448 0.768-0.832 0.32-0.448 0.64-0.896 0.32-0.192 0.32-0.512 0.064-0.768 0.512-1.472 0.448-0.768 1.152-1.536 0.256-0.256 0.384-0.448 0.32-0.512 0.64-1.088t0.704-1.152q0.064-0.128 0.192-0.192t0.256-0.192q-0.128 0.064-0.32 0.064-0.128 0-0.256 0.064l-2.368 1.024q-0.192 0.128-0.448 0.128-0.192 0-0.384 0.064-0.32 0.128-0.64 0.192-0.384 0.064-0.704 0.192-0.064 0-0.128 0.064t-0.192 0.064q-0.256 0-0.704-0.448-0.512-0.512-0.448-0.768-0.064-0.128-0.064-0.384-0.128-0.512-0.256-0.96-0.192-0.448-0.32-0.96-0.256-0.64 0.192-1.088 0.32-0.256 0.32-0.896 0-0.384 0.192-0.512 0.192-0.192 0.384-0.384 0.32-0.192 0.64-0.32 0.32-0.192 0.576-0.448 0.704-0.32 1.6-0.64 0.96-0.384 1.856-0.64 1.024-0.256 2.112-0.576 1.216-0.32 2.368-0.576 1.216-0.256 2.368-0.512 0.384-0.64 0.768-1.216 0.448-0.64 0.832-1.28 0.128-0.192 0.192-0.384 0.128-0.256 0.192-0.512 0.704-1.472 2.176-3.008 1.408-1.344 1.728-2.752 0.128-0.512 0.64-1.024 0.576-0.576 1.152-0.704 0.704-0.192 0.704-0.704-0.128-1.024 0.32-1.856 0.32-0.64 0.704-1.216t0.704-1.216q0.512-0.896 1.024-1.728 0.576-0.832 1.472-1.664 0.128-0.128 0.128-0.256 0.064-0.192 0.192-0.32 0.128-0.256 0.256-0.448 0.128-0.256 0.256-0.576 0.192-0.32 0.448-0.576t0.384-0.512q0.32-0.576 0.704-1.088 0.448-0.576 0.704-1.152 0.192-0.512 0.64-1.024 0.512-0.576 0.896-1.088 0.512-0.768 0.704-1.344 0.512-1.792 2.24-3.264 0.192-0.128 0.32-0.32 0.192-0.256 0.128-0.384 0-0.576 0.384-1.152 0.448-0.64 0.832-1.28 0.32-0.512 0.576-0.96 0.32-0.512 0.64-1.024 0.32-0.32 0.384-0.448 0.192-0.192 0.384-0.32 0.192-0.192 0.32-0.384 0.32-0.512 0.64-0.96 0.384-0.448 0.64-0.96 0.448-0.896 1.088-1.664t1.664-1.344q0.128-0.064 0.192-0.128t0.192-0.192q1.28-1.088 2.432-1.664 1.216-0.64 2.496-0.384 0.448 0.128 0.896-0.192 0.576-0.32 0.896-0.32t0.64 0.128q0.064 0 0 0.064 0 0 0.064 0 0.576-0.576 1.28-0.832 0.512-0.192 1.024-0.384 0.576-0.256 1.088-0.512 0.064 0 0.192-0.128 0.704-0.768 1.408-0.896 0.704-0.192 1.344-0.384 0.768-0.192 1.408-0.192t1.28 0.064zm-15.808 43.072q-0.256 0.192-0.576 0.384-0.256 0.192-0.384 0.384-0.128 0.128 0.064 0.32 0.192 0.128 0.32 0.256 0.384-0.384 0.384-0.384 0.192-0.448 0.192-0.96zm-14.08-7.488q0.064 0.064 0.128 0.064 0.128 0 0.128 0 0.256 0 0.384-0.256 0.192-0.32 0.32-0.576 0.128-0.32 0.32-0.64-0.128 0-0.192-0.064-0.32 0.384-0.576 0.768-0.192 0.32-0.512 0.704zm0.64 2.112q-0.32 0.448-0.576 0.896-0.192 0.384-0.512 0.832-0.256-0.128-0.384-0.128t-0.384-0.128q-0.576 0.96-1.088 1.984 0.384-0.32 0.576-0.576 0.256-0.256 0.512-0.448-0.256 1.408-2.24 2.112 0.448 0.064 0.512 0.192 0.128 0.128 0.064 0.32 0 0.128-0.192 0.32-0.192 0.128-0.32 0.32-0.128 0.128-0.192 0.32-0.064 0.128-0.192 0.256-0.448 0.576-0.832 1.152-0.32 0.576-0.704 1.152-0.064 0-0.064 0.064 2.048-0.32 3.968-0.384 2.24-0.128 4.416-0.256t4.352-0.128h1.472q0.128-0.256 0.192-0.448 0.128-0.256 0.256-0.576-0.32 0.192-0.576 0.32-0.192 0.064-0.384 0.192 0-0.128-0.064-0.256 0-0.192 0.064-0.32 0.128-0.384 0.192-0.768 0.128-0.384 0.256-0.768 0.128-0.128 0.384-0.32-0.192 0.512-0.128 0.768-0.064 0.128 0.256 0.384 0.128-0.064 0.128-0.064 0.064-0.064 0.192-0.128 0.064-0.512 0.064-0.896 0.064-0.448 0.192-0.96 0.064-0.192 0.064-0.384 0-0.256 0.128-0.512 0.064-0.256 0.064-0.448 0.064-0.256-0.256-0.32-0.064 0-0.384-0.32l0.96-0.32q-0.064-0.256-0.064-0.448t-0.064-0.32q-0.128-0.256-0.192-0.448 0-0.256 0.512-0.64-0.384-0.384 0.32-0.896 0.384-0.256 0.384-0.384 0.064-0.192-0.064-0.32-0.128-0.256-0.256-0.448-0.064-0.256-0.128-0.448-0.128-0.192-0.064-0.32t0.448-0.32q0.128-0.128 0.32-0.32 0.256-0.192 0.256-0.32 0-0.256-0.064-0.512 0-0.256-0.192-0.256-0.64-0.064 0.064-0.576 0.832-0.512 0.512-1.024-0.128-0.192-0.128-0.704 0.768-0.448 0.832-0.512 0.064-0.128-0.384-0.384-0.192-0.128-0.192-0.256 0-0.192 0.512-0.512 0.32 0 0.32-0.256 0-0.32 0.064-0.576 0.064-0.32-0.128-0.448-0.256-0.192-0.192-0.512t0.128-0.704q0.128-0.32 0.256-0.576 0.192-0.256 0.832-0.448-0.064-0.384-0.128-0.704-0.064-0.384-0.064-0.768 0-0.128 0-0.256t0.128-0.256q0.512-0.512 0.576-0.896 0.128-0.384 0.384-0.832 0.448-0.704-0.256-0.704-0.192 0-0.192-0.128 0.128-0.448 0.256-0.832 0.128-0.448 0.256-0.896 0.32-0.832 0.32-1.536 0.064-0.128 0.064-0.448-0.128 0.192-0.256 0.384-0.064 0.128-0.192 0.256-0.512 0.704-1.024 1.472-0.448 0.704-0.96 1.408-0.448 0.512-0.896 1.024t-0.832 1.024q-0.448 0.64-0.896 1.28-0.384 0.64-0.896 1.28-1.472 2.112-3.072 4.224-0.128 0.32-0.448 0.576-0.256 0.256-0.384 0.512-0.576 1.216-1.472 2.368-0.896 1.088-1.792 2.176-0.384 0.64-0.832 1.28-0.448 0.576-0.832 1.152zm-6.528 8.704q0-0.256 0.064-0.384-0.128 0.128-0.256 0.256-0.128 0.064-0.256 0.192 0.32 0 0.448-0.064zm-2.368-0.384q-0.128 0.192-0.32 0.448-0.128 0.192-0.256 0.384l1.344-0.192q0.064 0 0.064 0 0.064-0.064 0.128-0.064 0.128-0.128 0.192-0.256 0.064-0.192 0.192-0.32 0.576-0.512 0.896-0.96t0.576-0.96q0.32-0.576 0.768-0.512 0.128 0 0.192 0 0.128-0.064 0.32-0.064-0.064-0.192-0.128-0.256-0.064-0.128-0.128-0.256 0.064-0.064 0.192-0.064 0.064-0.192 0.064-0.384t0.128-0.448q0-0.192 0.128-0.32 0.32-0.32 0.576-0.64 0.256-0.384 0.576-0.768-0.128-0.256 0-0.576 0.192-0.32 0.512-0.704 0.384-0.448 0.704-0.832 0.384-0.384 0.704-0.832 0.128-0.192 0.256-0.384 0.128-0.256-0.192-0.256-0.448-0.064-0.96 0.576-0.896 1.28-1.728 2.624-0.832 1.28-1.984 2.56-0.832 0.832-1.472 1.728-0.64 0.832-1.344 1.728zm-12.416 12.8q0-0.256-0.192-0.256-0.128 0-0.256 0.064-0.064 0.064-0.192 0.128-0.256 0.32-0.448 0.64t-0.448 0.64q-0.064 0.128-0.064 0.256t0.064 0.128q0.128 0 0.32-0.064t0.32-0.192q0.192-0.32 0.384-0.64 0.256-0.384 0.512-0.704zm27.136-11.52q0.32-0.064 0.64 0 0.384 0 0.768 0h0.448q0.128-0.32 0.192-0.576t0.128-0.512h-0.064q-0.896-0.064-1.792 0.064-0.832 0.064-1.728 0.192-0.128 0-0.256 0-0.064-0.064-0.192-0.064-0.768-0.064-1.536-0.128-0.768-0.128-1.536 0.192-0.384 0.128-0.768 0.192t-0.704 0.128q-0.512 0.064-0.96 0.128-0.448 0-0.96 0-0.576 0.064-1.152 0.064t-1.152 0.064h-1.536q-0.064 0.128-0.064 0.384 0.256 0 0.512 0.064 0.256 0 0.576 0 0.192 0 0.384 0.064 0.192 0 0.384 0 0.32 0.064 0.576 0.128t0.576 0.064q0.384 0 0.768 0 0.448-0.064 0.832-0.128t0.768-0.128q0.448-0.064 0.832-0.128 0.128 0 0.192 0 0.128-0.064 0.256 0 0.512 0.128 1.024 0.128 0.512-0.064 1.024-0.128 0.512-0.128 0.96-0.128 0.512 0 0.96 0.192h0.128q0.32-0.064 0.704-0.064 0.384-0.064 0.768-0.064zm1.28 14.336q0.64-2.048 1.216-3.968 0.576-1.984 1.216-4.032-0.576 0.384-0.704 0.448-0.128 0.384-0.448 0.768-0.256 0.384 0 0.704 0.064 0.192-0.192 0.576-0.128 0.384-0.256 0.512-0.064 0.128-0.128 0.256-0.064 0.064-0.128 0.192-0.128 0.256-0.32 0.512t-0.128 0.384q0.128 0.384-0.064 0.896-0.192 0.448-0.32 0.896 0 0-0.064 0.128 0 0.384 0.128 0.768 0.128 0.32-0.256 0.832 0.064 0.064 0.128 0.064t0.128 0.064q0.064 0 0.192 0zm9.536-13.696q-0.32-0.256-0.704-0.448-0.384-0.256-0.768-0.384h-0.064q-0.128 0.128-0.192 0.32t-0.192 0.384q0.32 0.064 0.64 0.128 0.384 0.064 0.704 0.128 0.192 0.064 0.512 0.064 0-0.064 0-0.064 0.064-0.064 0.064-0.128zm-4.48-2.112q0.192 0.064 0.32 0.064 0.192 0 0.32 0.064 0.128-0.064 0.128-0.192 0.064-0.128-0.128-0.448 0-0.128-0.256-0.128-0.192 0.128-0.32 0.384 0 0.128-0.064 0.192 0 0 0 0.064zm2.56-6.464q0.448-0.96 0.64-1.856t0.448-1.856q-0.64 0.448-0.768 0.832-0.064 0.32-0.128 0.704-0.128 0.512-0.256 1.088-0.064 0.512-0.192 1.024 0 0.064-0.064 0.128 0 0 0 0.064 0.128-0.064 0.128-0.064 0.064 0 0.192-0.064z"/>
    <path d="m334.4-299.4q0.256 0.32 0.256 0.768t-0.064 0.896q-0.064 1.28-0.64 2.368-0.576 1.024-1.536 1.92-0.192 0.192-0.448 0.576-0.32 0.384-0.576 0.832-0.192 0.384-0.768 0.512-0.128 0-0.192 0.128t-0.192 0.256q-0.512 0.704-0.96 1.472-0.448 0.704-0.896 1.408-0.064 0.064-0.064 0.192 0 0.064-0.064 0.192-0.064 0.192-0.128 0.384t-0.192 0.256q-1.024 0.384-1.28 1.216-0.192 0.832-0.448 1.6-0.128 0.32-0.192 0.32-0.512 0.512-1.088 0.896-0.064 0.064-0.064 0.128 0 0-0.064 0.064-0.32 0.64-0.576 1.28-0.256 0.576-0.576 1.28-0.064 0.128-0.192 0.256-0.128 0.064-0.256 0.192-0.384 0.512-0.512 0.832-0.128 0.192-0.128 0.384t-0.128 0.32q-0.256 0.512-0.512 1.024-0.256 0.448-0.512 0.96-0.064 0.128-0.128 0.256 0 0.128-0.064 0.128-0.96 0.256-0.192 1.024-0.384 0.128-0.512 0.32-0.064 0.128-0.128 0.512 0 0.448-0.32 0.896-0.32 0.384-0.576 0.768-0.128 0.192-0.192 0.384-0.064 0.128-0.128 0.32t-0.128 0.448q0 0.192-0.128 0.448-0.192 0.32-0.448 0.576-0.192 0.192-0.064 0.704 0.128 0.32-0.192 0.704t-0.512 0.768q-0.128 0.32-0.256 0.576-0.064 0.256-0.192 0.576-0.128 0.384-0.448 0.576-0.128 0.128-0.32 0.32-0.192 0.128-0.448 0.32 0.192 0.128 0.32 0.192 0.192 0.064 0.448 0.192-0.192 0.128-0.384 0.256-0.192 0.064-0.32 0.192 0.128 0.256 0 0.704t-0.448 0.64q-0.32 0.256-0.384 0.768t0.256 0.832q-0.192 0.384-0.384 0.768-0.128 0.32-0.32 0.64-0.448 0.128-0.832 0.128t-0.704 0.128q-0.128 0-0.256 0.192-0.064 0.192 0 0.256 0.128 0.128 0.256 0.192t0.256 0.128q0.128 0 0.256-0.064 0.192-0.128 0.448-0.064-0.384 0.576-0.704 1.216 0 0.32-0.064 0.64t-0.64 0.448q0.256 0.192 0.512 0.448-0.192 0.384-0.512 1.536t-0.64 2.688-0.704 3.264q-0.32 1.664-0.576 3.136-0.192 1.408-0.32 2.432-0.064 1.024 0.064 1.216l0.064 5.184-0.064 0.064v0.384q0 0.512 0.064 0.768 0.128 0.384 0.256 0.832 0.128 0.512 0.128 0.96 0.064 0.512 0 0.832 0 0.32-0.192 0.32-0.448-0.064-0.896-0.128-0.384-0.064-0.576-0.576 0-0.128-0.128-0.128-1.152-0.512-1.792-1.6-0.576-1.024-1.088-2.176-0.128-0.384-0.256-0.768t-0.256-0.768h-0.064q0-0.192-0.064-0.256-0.064-0.256 0-0.512t0.128-0.512q-0.512 0.128-0.512-0.32t-0.064-0.768q-0.192-2.048-0.256-4.096 0-2.048 0.256-4.096 0.128-1.28 0.256-2.496 0.192-1.216 0.448-2.432 0.32-1.6 0.64-3.136 0.384-1.536 0.704-3.072h0.256q0 0.384 0 0.768t-0.064 0.768q-0.128 0.448-0.256 0.832-0.064 0.384-0.192 0.832-0.192 0.832-0.384 1.6-0.128 0.768-0.256 1.6-0.192 1.088-0.384 2.176t-0.384 2.176q-0.064 0.32-0.064 0.64 0 0.256 0 0.576-0.064 0.256-0.128 0.512t-0.064 0.512q0 0.192 0.064 0.384 0.128 0.192 0.192 0.384h0.256q0.128-0.832 0.192-1.6 0.128-0.768 0.256-1.6h0.256v1.728q0 0.192-0.064 0.448 0 0.192 0 0.384 0 0.32 0 0.64 0.064 0.32-0.256 0.64-0.128 0.064-0.128 0.512 0.064 0.832 0.064 1.6 0.064 0.768 0.128 1.6-0.32-0.128-0.704-0.256l-0.192 0.192q0.256 0.256 0.448 0.448 0.256 0.192 0.576 0.512-0.256 0.128-0.448 0.192-0.128 0-0.384 0.128 0.512 0.256 0.64 0.576 0.192 0.32 0.064 0.768 0 0.128 0.128 0.32 0.128 0.128 0.256 0.256 0.064-0.128 0.128-0.256 0.128-0.192 0.128-0.32-0.064-0.768-0.128-1.536t-0.128-1.536q0-0.192 0.064-0.384t0.064-0.32q0.064-0.192 0-0.384 0-0.192 0-0.32 0-0.192 0-0.384 0.064-0.192 0.064-0.384 0.064-0.896 0.064-1.792 0.064-0.96 0.192-1.856 0.128-0.576 0.256-1.088 0.192-0.512 0.256-1.088 0.128-0.704 0.192-1.408 0.064-0.768 0.192-1.664 0.256 0.064 0.512 0.064 0.32 0 0.64 0.064 0.064-0.192 0.064-0.384t0.064-0.448q-0.064 0-0.128 0 0-0.064-0.064-0.064-0.128 0.128-0.256 0.192-0.064 0.064-0.192 0.192-0.32-0.768-0.128-1.408 0.192-0.704 0.768-0.704v1.28h0.128q0.128-0.384 0.256-0.704 0.192-0.384 0.32-0.896-0.512-0.192-1.152-0.384 0.128-0.192 0.384-0.128 0.256 0 0.448 0.064 0.256 0 0.384-0.128t0-0.64q0.192-0.128 0.384-0.256 0.256-0.128 0.576-0.256-0.256-0.064-0.512-0.192-0.512 0.32-0.896 0.064-0.32-0.32-0.704-0.448-0.384 0.512-0.512 0.704 0.064 0.064 0.128 0.064-0.128 0.32-0.192 0.576t-0.128 0.576q-0.064 0.128-0.128 0.32 0 0.192-0.064 0.32l-0.384 1.92q-0.192 0.704-0.384 1.344t-0.32 1.28q-0.064 0.32 0 0.64 0.064 0.256 0.064 0.576-0.064 0.128-0.192 0.32-0.064 0.128-0.128 0.256-0.256-0.384-0.256-0.64 0.128-0.896 0.256-1.728 0.128-0.896 0.32-1.792 0.256-1.152 0.512-2.24 0.32-1.152 0.64-2.304 0.064-0.32 0.064-0.576 0.064-0.256 0.192-0.512 0.064-0.128 0.192-0.192t0.256-0.192q0.064 0.064 0.064 0.064 0.064 0 0.128 0.064-0.064 0.192-0.192 0.704 0.512 0.128 0.704 0.128 0.256-0.768 0.448-1.536 0.384 0.192 0.96 0.384 0.96-0.512-0.256-1.728-0.064 0.128-0.128 0.192-0.064 0-0.064 0.064 0 0.512-0.32 0.64-0.256 0.064-0.64-0.064-0.704-0.128-0.448-0.96 0.384-0.96 0.768-1.856 0.448-0.96 0.832-1.92 0.128-0.192 0.128-0.384t0-0.256q0.32-0.064 0.512-0.064t0.384-0.064q-0.128-0.128-0.256-0.32-0.064-0.192-0.192-0.448 0.192-0.192 0.256-0.512t0.128-0.64 0.192-0.576 0.448-0.448q0.128-0.512 0.256-1.024t0.32-1.024q0.32-0.704 0.704-1.408 0.384-0.768 0.704-1.536 0.192-0.384 0.32-0.768 0.128-0.448 0.256-0.896 0.256-0.384 0.512-0.448l-0.576 1.536q0.064 0 0.064 0.064 0.064 0 0.192 0 0.064-0.128 0.128-0.192 0.064-0.128 0.192-0.256 0.128-0.32 0.32-0.64t0.32-0.64q0.064-0.192 0.064-0.64h-0.512t-0.128-0.128q0.256-0.128 0.448-0.256 0.192-0.192 0.384-0.32 0.256-0.192 0.448-0.448-0.192-0.064-0.576-0.384 0.256-0.384 0.448-0.832 0.256-0.512 0.576-1.024 0.128 0.128 0.192 0.192 0.064 0 0.192 0.128-0.128-0.64-0.128-1.216 0.064-0.576 0.96-0.768-0.32-0.448-0.192-1.088t0.896-2.112q-0.192 0.192-0.448 0.384-0.256 0.128-0.384 0.384-0.704 1.408-1.408 2.816-0.64 1.408-1.344 2.88-0.256 0.448-0.576 0.832-0.256 0.32-0.448 0.704-0.32 0.576-0.512 1.152t-0.448 1.152q-0.128 0.192-0.256 0.384t-0.192 0.448q-0.256 0.512-0.448 1.152-0.128 0.576-0.384 1.28-0.064-0.32-0.192-0.448-0.064-0.192 0-0.32 0.192-0.512 0.384-0.96t0.384-0.896q0.576-1.344 1.152-2.688t1.216-2.688q0.576-1.28 1.216-2.496 0.64-1.28 1.28-2.56 1.088-2.112 2.112-4.16 1.024-2.112 2.112-4.16 0.96-1.792 2.048-3.456t2.176-3.328q0.32-0.576 0.832-0.96t1.088-0.32q0.448 0.064 0.96 0 0.576-0.064 0.96 0.576 0.128 0.192 0.448 0.256 0.384 0 0.704 0.128 0.896 0.448 1.728 0.96 0.896 0.512 1.408 1.344zm-23.744 39.936q0-0.128 0-0.192 0.064-0.064 0.064-0.192 0-0.32-0.128-0.576 0-0.064-0.192-0.064-0.128 0-0.128 0.064-0.064 0.128-0.128 0.32t0 0.384q0.064 0.128 0.512 0.256zm-4.288 19.968 0.768 0.064v-0.384q-0.256 0.128-0.448 0.128-0.128 0-0.384 0.128zm7.68-32.512q-0.064 0.128-0.064 0.256 0.064 0.128 0.064 0.256 0.064 0 0.064 0.064 0.064 0 0.128 0 0.064-0.192 0.192-0.256 0.128-0.128 0.256-0.192 0.192-0.064 0.256-0.192 0.128-0.128 0.064-0.448-0.064-0.192 0.064-0.448 0.192-0.32 0.32-0.448 0.576-0.192 0.448-0.576-0.064-0.448 0.128-0.768 0.064-0.128-0.064-0.256-0.064-0.128-0.128-0.256l-0.384 0.384q-0.064 0.128-0.128 0.32 0 0.192-0.128 0.32-0.32 0.576-0.576 1.152-0.256 0.512-0.512 1.088zm-1.088 8q0.128-0.448 0.256-0.768 0.192-0.384 0.32-0.704-0.128-0.128-0.128-0.128-0.256 0.192-0.512 0.384t-0.576 0.448q0-0.128-0.064-0.256-0.064-0.192-0.064-0.32v-1.792q-0.512 0.128-0.512 0.704 0 0.192-0.192 0.384t-0.32 0.32-0.256 0.192q-0.064 0.064-0.192 0.192 0 0.064 0.064 0.128 0.256 0.064 0.768 0.064v1.088q-0.128-0.064-0.256-0.192-0.064-0.192-0.192-0.32t-0.32-0.192q-0.128-0.064-0.384 0.128 0.128 0.32 0.192 0.64 0.064 0.256 0.192 0.576 1.344 0.128 1.6-0.96 0.128 0.128 0.256 0.192t0.32 0.192zm0.96 1.344q0.256-0.256 0.448-0.448 0.192-0.256 0.448-0.576-0.192-0.192-0.192-0.192-0.128-0.128-0.256 0-0.192 0.192-0.384 0.384-0.192 0.128-0.384 0.32-0.128 0.256 0 0.384 0.064 0.128 0.192 0.192 0.128 0 0.128-0.064zm1.152-2.24q0.704-0.064 0.512-0.832-0.256 0.064-0.576 0.128-0.256 0-0.64 0.128 0 0.128-0.064 0.32 0 0.192-0.064 0.512 0.256-0.128 0.448-0.192t0.384-0.064zm-0.64-2.368q0.384-0.832 0.704-1.6 0.384-0.832 0.704-1.728 0.064-0.128 0-0.32t-0.192-0.32h-0.192q-0.192 0-0.192 0.128-0.256 0.64-0.448 1.28-0.192 0.576-0.448 1.216-0.512 0-0.768-0.256-0.192-0.256 0-0.768 0.192-0.64-0.256-0.704-0.128 0.256-0.256 0.448t-0.256 0.448q-0.128 0.32-0.32 0.64-0.128 0.256-0.256 0.576-0.064 0.256-0.064 0.512 0.064 0.256 0.064 0.576 0.512 0.256 0.704-0.128 0.256-0.384 0.64-0.64 0.128 0.256 0.192 0.512 0.064 0.192 0.192 0.512 0.128-0.128 0.256-0.192t0.192-0.192zm2.112-2.176q-0.064-0.064-0.128-0.064 0 0-0.064-0.064-0.192 0.256-0.384 0.512-0.192 0.192-0.32 0.512 0 0.064 0.064 0.192 0.128 0.064 0.192 0.192 0.128-0.128 0.256-0.128 0.128-0.064 0.192-0.192zm-0.192-0.384q0.576 0 1.024-0.832 0.512-0.896 0.384-1.6-0.384 0.704-0.704 1.28-0.32 0.512-0.704 1.152zm1.728-3.392q0.832-0.512 0.832-0.64 0.064-0.192-0.448-0.576-0.128 0.32-0.192 0.64-0.064 0.256-0.192 0.576zm-7.616 3.968q-0.384 1.216-0.768 2.432-0.384 1.152-0.896 2.304-0.064-0.064-0.128-0.064t-0.128-0.064q0.448-1.216 0.832-2.368 0.448-1.152 0.896-2.368 0.064 0.064 0.064 0.064 0.064 0 0.128 0.064zm1.216-3.584q0.064 0.192 0 0.64-0.064 0.384-0.256 0.896-0.128 0.448-0.384 0.896-0.192 0.448-0.384 0.704-0.128 0-0.192-0.064 0.32-0.704 0.576-1.472 0.32-0.768 0.64-1.6zm-3.008 8.704q-0.192 0.64-0.384 1.28t-0.448 1.344q0 0-0.256-0.128 0.192-0.64 0.384-1.28 0.256-0.64 0.448-1.344 0.256 0.128 0.256 0.128z"/>
    <path d="m351.94-298.12q0.128 1.088-0.32 1.92t-1.28 1.6q-0.448 0.512-1.024 0.96-0.512 0.384-1.024 0.896-0.512 0.384-0.768 0.832t-0.576 0.96q-0.32 0.768-1.024 0.768-0.32 0.128-0.576 0.448t-0.448 0.64q-0.32 0.512-0.64 0.96-0.32 0.384-0.896 0.576-0.256 0.128-0.384 0.448-0.512 0.64-0.832 0.704-0.32 0-0.832-0.448-1.024-0.768-1.28-2.112t0.256-2.624q1.216-2.304 2.368-4.608 1.216-2.304 2.496-4.608 0.256-0.64 0.704-1.28 0.448-0.896 0.896-1.024 0.512-0.128 1.728 0.192-0.192 0.128-0.384 0.256-0.128 0.128-0.256 0.256 0.192 0.32 0.256 0.256 0.768-0.192 1.344-0.064t1.088 0.704q0.128 0.256 0.192 0.448 0.128 0.128 0.128 0.32 0.064 0.32 0.128 0.512 0.064 0.128 0.384 0.384 0.32 0.32 0.448 0.832 0.192 0.512 0.128 0.896zm-14.144 14.848q0.896 0.512 1.472 1.28t1.152 1.536q0.128 0.256 0.256 0.576 0.128 0.256 0.064 0.576-0.128 0.704-0.192 1.472-0.064 0.704-0.384 1.536-0.576 0.96-1.28 1.792-0.64 0.832-1.152 1.792-0.384 0.896-0.832 1.856-0.384 0.896-0.832 1.792-0.064 0.256-0.192 0.576-0.128 0.256-0.256 0.576-0.256 0.32-0.448 0.768-0.128 0.384-0.448 0.704-0.256 0.704-0.768 1.408-0.32 0.448-0.64 0.832-0.256 0.32 0 0.896 0.128 0.192-0.128 0.576-0.192 0.384-0.512 0.512-0.704 0.576-0.384 1.28 0.32 0.512-0.128 0.64-0.384 0.128-0.576 0.448 0.128 0.128 0.192 0.192 0.064 0 0.192 0.064-0.192 0.32-0.448 0.704-0.192 0.32-0.384 0.768-0.512 0.832-1.024 1.984-0.128 0.256-0.192 0.576t0.064 0.512q0.32 0.576 0.064 1.088-0.384 0.384-0.384 0.896-0.064 0.384-0.128 0.64t-0.576 0.512q-0.064 0.064-0.064 0.384 0 0.256 0.064 0.576-0.32 0.32-0.448 0.576-0.064 0.256 0.256 0.704 0 0.128-0.064 0.384-0.064 0.192-0.064 0.448-0.128 0.704-0.256 1.472-0.064 0.704-0.192 1.408-0.32-0.064-0.576-0.064-0.192 0-0.448-0.064 0 0.128-0.064 0.192 0 0 0 0.064 0.192 0.128 0.384 0.256 0.256 0.064 0.512 0.192-0.128 0.512-0.128 1.152t-0.512 1.28q-0.128 0.128-0.128 0.384 0.064 0.192 0 0.32-0.064 0.256-0.128 0.448 0 0.192-0.128 0.32-0.576 0.448-0.448 0.896t0.256 0.96q0.064 0.32 0.128 0.64 0.128 0.384 0.128 0.768 0.128 0.896-0.704 0.576-1.216-0.448-2.176-1.152-0.96-0.64-1.216-1.984-0.128-1.216-0.384-2.432t-0.192-2.496q0.128-2.048 0.32-4.096 0.256-2.048 0.704-4.096 0.128-1.088 0.32-1.984 0.256-0.96 0.512-2.048 0.32-1.024 0.64-1.984 0.32-1.024 0.64-2.112 0.704-2.24 1.472-4.352 0.768-2.176 1.6-4.416 0.64-1.664 1.344-3.328 0.768-1.728 1.472-3.392 0.704-1.472 1.28-2.944 0.576-1.536 1.152-3.008 0.064-0.128 0.192-0.32t0.256-0.192q1.984-0.128 3.52 0.704zm-14.336 31.808q-0.064 0.32-0.128 0.64-0.064 0.256-0.128 0.576 0.192 0 0.448 0.128 0.064-0.32 0.064-0.576 0.064-0.256 0.128-0.576 0-0.064-0.128-0.064-0.128-0.064-0.256-0.128zm1.664 0.32q0.064-0.192 0-0.384-0.064-0.256-0.128-0.512-0.128 0.256-0.256 0.512-0.064 0.192-0.192 0.384v0.064q-0.32 1.344-0.576 2.688-0.256 1.28-0.064 2.688 0.064 0.064-0.192 0.384-0.128-0.448-0.192-0.896-0.064-0.512-0.256-1.024-0.064-0.192 0-0.384 0.128-0.256 0.192-0.448 0.064-0.256 0-0.448t-0.384-0.384q-0.128 1.472-0.192 2.88t-0.064 2.88q0.064 0.32 0.128 0.576 0.128 0.192 0.192 0.448 0.576-0.448 0.448-0.896-0.064-0.448-0.128-0.896 0-0.32 0.064-0.512 0.064-0.256 0.384-0.512 0.448-0.32 0.512-0.704 0.064-0.448-0.192-0.896 0.128-0.32 0.32-0.576 0.256-0.32 0.256-0.576-0.128-0.512-0.128-1.024 0.064-0.512 0.32-1.024 0.256-0.576 0.128-1.408zm2.112-5.952q0.576 0.128 0.704-0.064 0.192-0.192 0.064-0.512 0.064-0.128-0.064-0.192-0.064-0.064-0.192-0.192-0.192 0.256-0.32 0.512-0.064 0.192-0.192 0.448zm0.64-1.344q0.32 0 0.448-0.128 0.128-0.192 0.128-0.384 0.064-0.192 0.064-0.384 0.064-0.192 0.192-0.384-0.512-0.128-0.64-0.256-0.192-0.064-0.768-0.448-0.064 0.128-0.128 0.32-0.064 0.128-0.128 0.32-0.32 0.768-0.64 1.6t-0.576 1.728q-0.256 0.832-0.448 1.728-0.192 0.832-0.448 1.728-0.064 0.128 0 0.32 0.064 0.128 0.128 0.256 0.128-0.064 0.32-0.128t0.192-0.192q0-0.512 0.256-0.896 0.32-0.384 0.256-0.896-0.064-0.192 0.128-0.448 0.192-0.32 0.32-0.576 0.512-0.512 0.576-0.64-0.192-0.32-0.384-0.512-0.128-0.256-0.128-0.384 0.192-0.512 0.448-0.96 0.256-0.512 0.384-0.96 0.128 0.128 0.192 0.32 0.128 0.192 0.256 0.256zm0.832-1.792q0.32 0 0.448-0.576 0.128-0.64 0-1.216-1.088 0.256-1.216 0.448-0.128 0.128 0.064 0.64 0.064 0.256 0.256 0.448 0.256 0.192 0.448 0.256z"/>
    <path d="m358.53-270.8q0.512 1.088-0.32 1.728-0.192 0.128-0.32 0.32t-0.256 0.512q-0.32 0.256-0.64 0.576-0.32 0.256-0.64 0.64 0.256 0.32 0.256 0.576t-0.512 0.448q-0.192 0.128-0.32 0.448-0.064 0.32-0.256 0.768 0.832-0.128 0.896-0.192 0.512-0.704 0.96-1.408 0.448-0.768 0.96-1.472 0.384-0.512 0.768-1.024t0.832-1.024q0.128-0.256 0.384-0.448 0.256-0.256 0.256-0.512 0-0.704 0.448-0.96 0.512-0.32 0.832-0.768 0.32-0.512 0.64-0.896 0.32-0.448 0.64-0.96 0.384-0.512 0.704-0.96 0.32-0.512 0.704-0.96 1.088-1.152 2.176-2.24 1.088-1.152 2.176-2.24 0.192-0.256 0.384-0.448 0.256-0.192 0.512-0.384l0.128 0.128q-0.896 0.896-1.728 1.792t-1.728 1.792q0 0.064 0.128 0.192 0.512-0.128 0.704-0.32 0.768-0.704 1.472-1.472 0.768-0.768 1.472-1.472 0.704-0.576 0.256-1.216 0.32-0.384 0.576-0.768 0.32-0.384 0.64-0.768 0.128-0.128 0.064-0.256 0-0.128 0.064-0.256-0.32 0-0.576 0.128-0.576 0.448-1.152 0.832-0.512 0.384-1.152 0.704 0.064-0.064 0.064-0.128 0.064-0.064 0.128-0.128 0.96-0.768 1.856-1.472 0.96-0.768 1.856-1.6 0.256-0.192 0.32-0.512 0.128-0.32 0.32-0.576 0.256-0.32 0.512-0.512 0.256-0.256 0.576-0.512 0.128-0.064 0.256-0.064 0.192 0 0.192 0.064 0.256 0.576 0.704 0.448 0.448-0.192 0.768-0.064 0.448 0.192 0.832 0.448 0.384 0.192 0.832 0.448 0.256 0.128 0.448 0.32 0.256 0.192 0.576 0.448 0 0.576 0.896 1.088 0.32 0.128 0.448 0.576 0.128 0.384 0.32 0.768 0.128 0.32 0.192 0.704 0.128 0.32 0 0.768-0.128 0.512-0.192 1.088 0 0.512-0.128 1.024-0.064 0.256-0.256 0.512-0.128 0.256-0.256 0.512-0.896 1.28-1.792 2.56t-1.792 2.56q-0.192 0.256-0.256 0.576-0.064 0.256-0.192 0.512-0.192 0.512-0.384 0.96t-0.704 0.768q-0.256 0.192-0.384 0.64-0.064 0.384-0.256 0.704-0.192 0.512-0.448 0.96-0.256 0.384-0.512 0.832-0.32 0.448-0.448 0.96-0.064 0.448-0.256 0.896-0.384 0.704-0.256 1.536 0.128 0.768-0.384 1.536-0.256 0.384-0.192 1.024 0.128 0.64 0.064 1.28 0 0.192-0.064 0.448 0 0.192 0 0.448 0.256 0.512 0.448 1.088 0.256 0.512 0.512 1.088-1.088 0.768-2.176 0-2.432-1.664-3.392-4.032-0.96-2.432-0.96-5.248 0.064-4.544 1.92-8.896 0.256-0.512 0.384-1.088 0.192-0.576 0.384-1.152l-0.192-0.192q-0.128 0.128-0.384 0.256-0.192 0.128-0.32 0.256-0.704 0.768-1.344 1.536t-1.344 1.6q-0.32 0.448-0.576 0.96-0.256 0.448-0.576 0.96-0.192 0.32-0.448 0.576-0.192 0.256-0.448 0.576-0.576 0.832-1.216 1.664-0.576 0.768-1.088 1.664-1.344 2.048-2.624 4.16-1.28 2.048-2.56 4.16-1.088 1.856-2.048 3.776t-1.92 3.776q-0.832 1.536-1.536 3.136-0.704 1.536-1.536 3.072-0.384 0.768-0.896 1.472-0.448 0.64-0.768 1.344-0.384 0.832-0.96 1.472-0.512 0.576-1.024 1.28-0.896 1.472-2.432 0.448-0.384-0.256-0.832-0.384-0.384-0.128-0.704-0.64-0.768-1.088-1.152-2.304t-0.512-2.496q-0.256-3.328 0.384-6.592 0.896-4.544 2.496-8.768 0.512-1.344 1.024-2.688 0.576-1.408 1.152-2.752 0.64-1.472 1.28-2.88t1.28-2.88q0.32-0.64 0.576-1.216 0.32-0.576 0.512-1.216 0.32-1.152 0.96-2.112 0.704-1.024 1.152-2.112 0.448-1.152 1.024-2.176 0.576-1.088 1.088-2.176 0.512-1.408 2.048-1.792 0.128 0.384 0.32 0.512 0.256 0.128 0.448 0.128 0.256-0.064 0.512-0.064 0.32-0.064 0.512 0v0.576q0.704-0.256 1.088 0.064 0.448 0.256 0.896 0.704 0.512 0.512 1.024 1.024 0.576 0.512 0.896 1.28 0.064 0.128 0.128 0.32t0.064 0.32q-0.256 0.96-0.384 1.984t-0.896 1.856q-0.576 0.704-1.152 1.408-0.512 0.64-0.832 1.536-0.064 0.32-0.384 0.512-0.256 0.192-0.384 0.512-0.384 0.704-0.768 1.536-0.32 0.768-0.704 1.472-0.192 0.384-0.448 0.768-0.256 0.32-0.576 0.576-0.896 0.576-1.344 1.408-0.384 0.832-0.704 1.728-0.192 0.576-0.512 1.088-0.256 0.448-0.96 0.576 0.384 0.704 0.128 1.344-0.256 0.576-0.704 1.088-0.256 0.32-0.512 0.704-0.256 0.32-0.128 0.896 0.064 0.256-0.256 0.576-0.256 0.256-0.384 0.576-0.384 0.704-0.832 1.472-0.448 0.704-0.64 1.408-0.128 0.704-0.512 1.408-0.32 0.64 0 1.408 0.128 0.192-0.128 0.512t-0.384 0.64q-0.192 0.384-0.32 0.832t-0.32 1.024q0.192-0.128 0.32-0.192 0.192-0.064 0.32-0.192l4.608-8.448q0.768-1.344 1.536-2.688t1.6-2.688q0.576-0.96 1.216-1.92t1.28-1.984q0.32-0.512 0.64-1.088 0.384-0.576 0.768-1.088 0.128-0.256 0.32-0.448t0.448-0.512zm-2.752 6.912q-0.064-0.064-0.128-0.064-0.064-0.064-0.128-0.128-0.128 0.128-0.32 0.192t-0.32 0.192-0.192 0.32q0 0.192-0.128 0.32 0.192 0 0.384 0.064 0.256 0 0.384-0.128t0.192-0.32q0.128-0.256 0.256-0.448zm-12.032 9.408q0.128 0.064 0.128 0.128 0.064 0 0.192 0.064 0.128-0.256 0.192-0.448 0.128-0.256 0.256-0.448-0.064 0-0.128-0.064t-0.128-0.064q0 0-0.064-0.064-0.192 0.256-0.448 0.896zm24.576-27.264q-0.832 0.832-1.664 1.6t-1.6 1.664q-0.384 0.384-0.704 0.832-0.256 0.448-0.576 0.96-0.064 0.064-0.128 0.192 0 0.064-0.128 0.128-1.216 0.576-1.792 1.664t-1.344 2.048q-0.256 0.32-0.512 0.64t-0.192 0.832q0 0.128-0.32 0.192t-0.64 0.064q3.968-6.144 9.344-11.072 0.064 0.192 0.256 0.256z"/>
    <path d="m414.85-266.51q0 0.256 0 0.256-0.192 0.32-0.384 0.768-0.192 0.384-0.512 0.512-0.384 0.192-0.576 0.512-0.128 0.256-0.384 0.576-0.32 0.384-0.64 0.832t-0.64 0.896q-0.128 0.256-0.256 0.576-0.064 0.256-0.192 0.448-0.32 0.512-0.768 0.896-0.384 0.384-0.704 0.896-0.32 0.32-0.64 0.576-0.256 0.256-0.512 0.64-0.128 0.32-0.448 0.576t-0.576 0.576q-0.192 0.192-0.192 0.192-0.128 0.576-0.576 0.832-0.384 0.192-0.832 0.448-0.384-0.384-0.384-0.448 0-0.128 0.448-0.448 0.128-0.128 0.256-0.32t0.32-0.32q0.192-0.192 0.384-0.384 0.256-0.192 0.512-0.384 0.32-0.384 0.704-0.704 0.384-0.384 0.704-0.768t0.576-0.704q0.32-0.384 0.64-0.768 0.32-0.512 0.576-0.96 0.256-0.512 0.576-0.96 0.256-0.32 0.576-0.576t0.64-0.576l-0.192-0.128q0.064-0.128 0.064-0.384 0.064-0.256 0.128-0.256 0.704 0 0.64-0.384-0.064-0.448 0.064-0.768 0.128-0.256 0.128-0.448 0.064 0 0.064 0.064 0.064 0 0.128 0-0.128-0.128-0.192-0.192-0.064-0.128-0.192-0.256-1.088 1.536-2.176 3.008t-2.368 2.816q0 0-0.128-0.128 0.128-0.128 0.128-0.256 0.064-0.128 0.192-0.256 0.704-0.896 1.344-1.728 0.704-0.896 1.408-1.792 0.512-0.768 0.896-1.472 0.128-0.32 0.32-0.576 0.256-0.32 0.448-0.576 0.256-0.256 0.512-0.512l0.384 0.384q0.128 0.128 0.32 0.32 0.192 0.128 0.32 0.256 0 0.128 0 0.32 0.064 0.128 0.064 0.256zm-10.432 11.584q0.256-0.32 0.64-0.448 0.448-0.192 1.024 0.128l-1.088 1.088q-0.704 0.704-1.344 1.344-0.576 0.64-1.216 1.28-0.128 0.128-0.32 0.192-0.128 0-0.256 0.128t-0.256 0.256q-0.064 0.128-0.192 0.256l-0.576 0.576q0-0.064-0.192 0.128-0.512 1.024-1.408 1.664-0.832 0.576-1.6 1.344-0.768 0.704-1.6 1.472-0.832 0.704-1.664 1.408-0.128 0.064-0.256 0.128-0.064 0.064-0.192 0.128-0.384 0.192-1.024 0.576t-1.344 0.832q-0.64 0.448-1.28 0.896-0.64 0.384-0.96 0.576-0.704 0.512-1.472 0.768t-1.6 0.384-1.664 0.128-1.536-0.576q-0.512-0.384-0.832 0.128-0.192 0.448-0.576 0.448-0.32 0-0.704-0.064-0.384 0-0.704-0.192-0.256-0.128-0.32-0.64-0.064 0-0.128 0.064 0 0-0.064 0 0 0.128-0.064 0.32 0 0.128 0 0.384-0.32-0.32-0.512-0.576-0.192-0.32-0.448-0.64 0-0.064-0.064-0.128 0-0.064-0.064-0.128v-0.064l-0.192-0.384q-0.32-1.152-0.96-1.792-0.256-0.192-0.384-0.448-0.064-0.32-0.192-0.64-0.192-0.32-0.448-0.64-0.192-0.32-0.384-0.64t-0.32-0.64q-0.064-0.32-0.192-0.704-0.256-0.896-0.448-1.728-0.128-0.896 0-1.792 0.064-0.64 0.128-1.216 0.128-0.576 0.192-1.216 0.064-0.064 0.064-0.192-0.064-1.088 0.32-1.984 0.384-0.96 0.704-1.856 0.064-0.192 0.384-0.32-0.576-0.768 0.384-1.088 0.192-0.192 0.192-0.384-0.192-0.704 0.384-0.96 0 0 0.128-0.512 0.256-0.064 0.448-0.192 0.256-0.128-0.064-0.64-0.064-0.064 0.128-0.32 0.256-0.32 0.448-0.448 0.128-0.128 0.192-0.192 0.128-0.064 0-0.256l0.576-0.384q-0.128-0.192-0.384-0.448 0.896 0 0.576-0.512 0.32-0.32 0.512-0.576 0.256-0.32 0.512-0.64 0.128-0.256 0.256-0.512 0.192-0.256 0.32-0.576 0.064 0 0.064 0 0.064-0.064 0.128-0.064 0.704-0.32 0.832-0.448 0.128-0.192 0-0.832 0.128-0.064 0.256-0.064 0.192 0 0.32-0.064-0.128-0.128-0.256-0.256-0.128-0.192-0.256-0.384 0.96-1.216 2.112-2.688-0.128 0.384-0.192 0.512 0.064 0 0.064 0.064 0.064 0 0.128 0 0.128-0.192 0.256-0.384t0.32-0.512q0.512-0.128 0.384-0.832-0.064-0.384 0.448-0.896t1.024-0.64h0.256q-0.192-0.576 0.128-0.832 0.384-0.256 0.576-0.576 0.512-0.768 1.152-1.408t1.28-1.344q0.64-0.768 1.344-1.408 0.768-0.704 1.28-1.536 0.64-0.96 1.408-1.664 0.768-0.768 1.664-1.472 0.128-0.128 0.32-0.192 0.192-0.128 0.384-0.256 0.256-0.128 0.384-0.064l1.728 0.768q0.064 0 0.128 0.064 0.064 0 0.128 0 0.32 0.128 0.576 0.256t0.448 0.448q0.192 0.256 0.448 0.448t0.512 0.32q0.704 0.448 1.024 1.024t0.64 1.28q0 0.064 0.064 0.128 0.128 0.384 0.128 0.832 0.064 0.448 0.256 0.896 0.32 0.704 0.448 1.344 0.192 0.64 0.512 1.28 0.32 0.704 0.064 1.408t0 1.408q0 0.064-0.064 0.192-0.064 0.064-0.128 0.192 0.576 0.384 0.32 0.768-0.256 0.32-0.384 0.704-0.064 0.384-0.128 0.768-0.064 0.32-0.192 0.704-0.128 0.32-0.192 0.64 0 0.256-0.32 0.512-0.128 0.128-0.128 0.32 0 0.128-0.064 0.256-0.32 0.64-0.704 1.216-0.576 1.024-1.216 1.792-0.384 0.576-0.768 1.152t-0.768 1.088q-0.32 0.512-0.704 0.896-0.32 0.384-0.64 0.896-0.256 0.32-0.448 0.832-0.128 0.32-0.32 0.384-0.64 0.32-1.024 0.896-0.32 0.512-0.768 1.024-0.32 0.32-0.768 0.64t-0.832 0.64q-0.32 0.256-0.64 0.512-0.256 0.256-0.576 0.512-0.384 0.32-0.832 0.576-0.384 0.256-0.832 0.576-0.128 0-0.192 0.064-0.896 0.704-1.92 1.024-1.024 0.256-2.048 0.576-0.384 0.128-0.576 0.128h-0.064q-0.832 0.192-2.24 0.256t-2.24-0.128l-0.064-0.064-0.384 0.192q0.128 0.64-0.576 1.024-0.128 0.064-0.192 0.192 0 0.128-0.064 0.256-0.128 0.128-0.192 0.256 0 0.064-0.128 0.192-0.32 0.32-0.128 0.448 0.256 0.064 0.384 0.192-0.128 0.32-0.192 0.64t-0.128 0.64q-0.128 0.256-0.256 0.32-0.576 0.576-0.128 1.344 0.192 0.32-0.064 0.704-0.256 0.448 0.128 0.768 0.192 0.064 0.32 0.512l0.192 0.384q0.064 0.32 0.064 0.704 0.064 0.32 0.256 0.64 0.384 0.576 1.088 0.704 1.28 0.192 2.88-0.192 1.6-0.448 2.688-1.152 0.576-0.384 1.408-0.896 0.832-0.576 1.728-1.152 0.896-0.64 1.664-1.216 0.832-0.64 1.408-1.024 1.408-1.088 2.752-2.24t2.688-2.304q1.152-1.024 2.24-2.048t2.176-2.112q0.96-0.832 1.856-1.664 0.96-0.832 1.856-1.728 0.256-0.192 0.448-0.448t0.384-0.512q0.064 0.064 0.128 0.128 0.064 0 0.128 0.128-1.536 1.664-3.136 3.264-1.536 1.6-3.008 3.2-0.128 0.192-0.256 0.384-0.064 0.128-0.192 0.256-0.384 0.448-0.832 0.896-0.384 0.384-0.768 0.768-0.064 0.064-0.128 0.128-0.064 0-0.128 0.064-0.128 0.064-0.192 0.128 0 0.064-0.128 0.192 0.128 0 0.256 0.064 0.192 0.064 0.32 0 0.192-0.128 0.32-0.256 0.192-0.192 0.384-0.32 0.96-0.768 1.856-1.6t1.728-1.792zm-23.68-5.248q0.192-0.32 0.576-0.512t0.192-0.768q-0.32 0-0.384 0.064-0.256 0.256-0.448 0.512-0.128 0.256-0.32 0.512-0.192 0.192 0.064 0.192 0.128 0.192 0.32 0zm0.704 1.92q0.384-0.512 0.704-0.896 0.32-0.448 0.704-0.96-0.576 0.064-1.024 0.64-0.448 0.512-0.384 1.216zm11.008 0.896q0.128-0.128 0.128-0.384 0.064-0.32 0.128-0.576-0.512 0-0.704 0.512-0.128 0.192-0.32 0.384t-0.32 0.384l-0.768 0.576 0.192 0.192q0.448-0.256 0.832-0.512 0.448-0.256 0.832-0.576zm0.896-1.088q0.128 0 0.256-0.256 0.064-0.064 0-0.128t-0.128-0.064q-0.256-0.128-0.448 0.064-0.128 0.128-0.192 0.256 0 0.064-0.128 0.192 0.448 0 0.64-0.064zm-4.288-5.568q-0.448 0.576-0.832 1.216-0.384 0.576-0.832 1.152-0.064 0.064-0.192 0.128t-0.192 0q-0.32-0.064-0.384 0.128-0.064 0.128-0.128 0.384 0 0.192-0.128 0.576-0.128 0.256-0.256 0.512-0.128 0.192-0.256 0.448l-0.32 0.32q-0.128 0.192-0.32 0.384t-0.32 0.448q-0.32 0.64-0.576 1.28-0.192 0.64-0.768 1.152-0.128 0.128-0.128 0.128l-0.832 1.216q0.512 0 1.088 0.128t1.088-0.064q0.32-0.128 0.576-0.192t0.576-0.192q0.384-0.064 0.576-0.064 0.192-0.064 0.448-0.192 0.192-0.128 0.384-0.192 0.256-0.064 0.512-0.192 0.128 0 0.256-0.128l1.92-1.344q0.32-0.192 0.64-0.32 0.32-0.192 0.64-0.448 0.896-0.64 1.6-1.344 0.768-0.768 1.344-1.664l0.256-0.256q0.448-0.512 0.832-1.024 0.448-0.512 0.832-1.024 0.512-0.64 1.024-1.28t1.024-1.28q0.128-0.128 0.128-0.32 0.064-0.128 0.064-0.32 0.064-0.192 0.192-0.32 0.96-1.536 1.664-3.136t0.96-3.456q0.128-0.64 0.064-1.28 0-0.64 0-1.28 0-0.128-0.128-0.32-0.064-0.192-0.192-0.192-0.32 0-0.576 0.256-0.128 0.128-0.512 0.512t-0.512 0.448q-0.256 0.256-0.512 0.448-0.192 0.192-0.448 0.384-0.384 0.256-0.704 0.576t-0.768 0.576q-0.512 0.32-0.896 0.832t-0.832 0.96q-0.192 0.192-0.448 0.384-0.256 0.128-0.512 0.256-0.256 0.256-0.32 0.384-0.32 0.448-0.576 0.896-0.192 0.448-0.512 0.896t-0.768 0.896q-0.384 0.384-0.768 0.768-0.512 0.576-0.96 1.216t-1.28 0.896q0 0.192 0 0.384 0.064 0.128 0 0.256zm-1.536-7.744q-0.128 0.128-0.32 0.32-0.128 0.192-0.256 0.32 0 0.128 0.064 0.192 0.128-0.064 0.256-0.064t0.192-0.128q0.128-0.128 0.128-0.256 0-0.192 0.064-0.32-0.064-0.064-0.128-0.064zm-1.152 0.96q-0.128 0.064-0.32 0.256-0.128 0.128-0.256 0.256 0.192 0.192 0.576 0.448 0 0.128 0.128 0.128 0.128-0.192 0.192-0.32 0.128-0.192 0.256-0.448-0.064-0.064-0.192-0.128t-0.256-0.128q-0.064-0.064-0.128-0.064zm-0.512 0.96q-0.64-0.064-1.024 0.704 0.256 0.128 0.64 0.384-0.064-0.128-0.128-0.256 0-0.128-0.064-0.32 0.128 0 0.256 0.064 0.128 0 0.256-0.064 0.128 0 0.384-0.256-0.128-0.064-0.192-0.128 0-0.128-0.128-0.128zm-8.384 14.208q0-0.064 0-0.064 0.064 0 0.064-0.064-0.128-0.384-0.256-0.64-0.064-0.064-0.192-0.064 0 0.128-0.064 0.256t0 0.256q0 0.064 0.448 0.32zm-0.256-1.088q0.256-0.128 0.448-0.256 0.256-0.128 0.576-0.32-0.512-0.512 0.128-1.024 0.064-0.064 0-0.192 0-0.128 0.064-0.256-0.064 0-0.128 0 0-0.064-0.064-0.064-0.32 0.512-0.576 1.024-0.256 0.448-0.576 0.96 0.128 0.128 0.128 0.128zm1.024 5.632q0.192-0.128 0.192-0.448 0.064-0.384-0.064-0.64-0.128 0.256-0.192 0.448t-0.192 0.448q0 0.064 0 0.128 0.064 0.064 0.064 0.128 0.192 0 0.192-0.064zm0-8.192q0.128 0.128 0.32 0.256 0.192 0.064 0.384 0.192 0.128-0.192 0.192-0.384 0.128-0.192 0.192-0.448 0.064-0.128 0-0.32 0-0.256 0-0.448 0.128 0.064 0.128 0.128 0.064 0 0.192 0.064 0.32-0.32 0.512-0.576 0.256-0.32 0.512-0.64 0.064-0.128 0.064-0.128 0.064-0.064 0.128-0.192 0-0.064-0.128-0.128-0.064-0.064-0.128 0-0.128 0-0.32 0.192-0.064 0.128-0.128 0.256 0 0.064-0.064 0.192-0.064 0-0.192-0.128 0.128-0.256 0.256-0.512 0.192-0.256 0.448-0.384 0.576-0.256 0.64-0.384 0.128-0.128-0.192-0.704l0.384-0.192q0.256-0.128 0.512-0.256 0.32-0.128 0.384-0.256 0.064-0.64 0.448-0.832 0.384-0.256 0.704-0.576-0.128-0.64-0.192-0.832 0.448-0.256 0.768-0.576 0.256-0.192 0.448-0.448t0.384-0.512q0.448-0.512-0.256-0.832-2.048 2.048-3.52 4.48t-2.88 4.928zm0.64 6.336q0.32-0.576 0.512-1.152 0.256-0.576 0.576-1.152-0.128 0-0.128-0.128-0.256 0.128-0.256 0.256-0.128 0.384-0.384 0.768-0.192 0.32-0.384 0.704-0.128 0.192-0.128 0.704z"/>
    <path d="m449.6-241.87q0.256 0.448-0.192 0.64-0.128 0.064-0.32 0.32-0.128 0.192-0.064 0.32 0.256 0.704-0.192 1.024-0.384 0.384-0.64 0.896-0.448-0.384-0.64-0.768t0-0.96q0.128-0.704 0.128-1.344 0-0.704 0.064-1.408 0-0.64-0.576-0.704-0.384 0-0.384-0.128-0.896-1.216-2.048-1.536-1.152-0.384-2.368-0.512-1.152-0.128-2.304-0.064-1.088 0.064-2.24 0-1.728-0.128-3.456 0.192-1.728 0.256-3.392 0.384-0.896 0.128-1.792 0.32-0.896 0.128-1.792 0.32-1.344 0.32-2.688 0.64-1.344 0.256-2.624 0.576-0.448 0.128-0.832 0.384t-0.832 0.384q-1.792 0.704-3.584 1.408t-3.648 1.408q-0.768 0.32-1.6 0.576t-1.6 0.704q-0.448 0.256-0.96 0.32-0.512 0.128-0.768 0.768-0.064 0.128-0.32 0.128-0.256 0.064-0.384 0-0.32-0.128-0.576-0.128t-0.512 0.32q-0.192 0.192-0.448 0.192-0.512-0.128-0.832-0.704-0.384-0.512-0.32-1.024 0-0.128 0.064-0.32 0-0.192-0.128-0.192-0.512-0.32-0.512-0.768-0.064-0.512-0.064-0.96-0.128-1.28 0-2.496 0.128-1.28 0.96-2.368 1.088-1.472 2.24-2.752t2.432-2.432q0.768-0.768 1.856-1.792t2.24-2.048q1.152-1.088 2.176-2.112 1.088-1.024 1.856-1.792 1.024-0.896 2.304-2.048 1.28-1.216 2.624-2.432 1.344-1.28 2.624-2.496t2.304-2.112q1.024-0.96 2.048-1.92 1.024-1.024 2.112-1.984 0.64-0.576 1.472-1.408t1.728-1.664 1.728-1.6q0.896-0.832 1.472-1.408 0.256-0.128 0.32-0.448-0.192 0.064-0.448 0.064-0.192 0-0.384 0.064l-3.072 0.768q-0.512 0.128-1.024 0.32-0.448 0.192-0.96 0.384-0.256 0.128-0.32 0.128-0.512-0.32-1.024 0-0.512 0.256-1.088 0.192 0 0-0.128 0.064-0.832 0.832-1.792 1.024t-1.984 0.448q-0.384 0.128-0.832 0.256-0.384 0.128-0.832 0.192-0.896 0.256-1.792 0.448-0.896 0.128-1.856 0.256-0.256 0.064-0.576 0-0.32-0.128-0.576-0.256-0.64-0.256-1.216-0.512-0.512-0.256-1.024-0.384-0.32-0.128-0.704-0.448-0.384-0.384-0.704-0.832-0.256-0.512-0.448-0.96-0.192-0.512-0.192-0.896 0.064-0.128 0-0.256 0-0.192 0-0.32-0.192-0.448 0-0.704t0.384-0.512q0.128-0.128 0.32-0.064 0.256 0 0.448 0.128 0.256 0.128 0.448 0.32t0.448 0.32q0.32 0.192 0.64 0.384 0.384 0.192 0.704 0.128 1.152-0.128 2.304-0.32 1.152-0.256 2.368-0.512 1.024-0.192 1.984-0.448 1.024-0.256 2.048-0.576 0.704-0.192 1.28-0.448 0.64-0.256 1.344-0.512 1.088-0.32 2.048-0.512 0.96-0.256 2.048-0.576 1.28-0.384 2.496-0.768 1.28-0.384 2.56-0.704 2.24-0.64 4.736-1.024 0.384-0.064 0.704 0.064 0.384 0.064 0.64 0.576 0.128 0.256 0.32 0.512 0.192 0.192 0.32 0.448 0.128 0.192 0.128 0.704-0.064 0.064-0.128 0.064 0 0-0.064 0.064 0.32 0.256 0.64 0.512 0.384 0.192 0.704 0.512 0 0.128-0.192 0.32 0.064 0.448 0.064 0.832t0 0.704h-0.256q-0.128 0-0.256 0.064-0.128 0-0.192-0.064-0.448 0.384-0.192 1.088 0.128 0.384 0.128 0.832 0.064 0.448 0 0.832-0.128 0.576-0.32 1.088t-0.32 1.088q-0.128 0.256-0.128 0.32-0.32 0.32-0.832 0.832t-1.088 1.024-1.088 1.024q-0.512 0.448-0.768 0.704-0.256 0.192-0.512 0.32-0.192 0.128-0.384 0.384-0.192 0.32-0.448 0.512-0.192 0.192-0.64 0.064-0.192 0-0.192 0.192-0.128 0.192-0.256 0.512-0.128 0.256-0.32 0.384-0.128 0.128-0.384 0.192t-0.576 0.192v0.64q-0.064 0.128-0.256 0.128-0.192-0.064-0.32 0-0.128 0-0.192 0.128t0.128 0.512q-0.64 0.192-1.472 0.832t-1.664 1.344-1.6 1.472q-0.704 0.704-1.152 1.088-0.384 0.32-1.024 0.96-0.64 0.576-1.344 1.216t-1.408 1.216-1.152 0.768q-0.64 0.32-1.152 0.832t-1.024 0.96q-0.32 0.32-0.64 0.576-0.32 0.192-0.64 0.448-0.064 0.064-0.192 0.32-0.256 0.576-0.896 0.896-0.576 0.256-1.088 0l-0.192 0.384q-0.256-0.064-0.64-0.192-0.064 0.064-0.128 0.128 0 0.064-0.064 0.128l0.384 0.192q0.064 0 0.256 0.192-0.32 0.256-0.704 0.448-0.32 0.128-0.512 0.384-0.256 0.256-0.448 0.576-0.128 0.32-0.32 0.576-0.192 0.192-0.512 0.256-0.256 0.064-0.448 0.192-0.128 0.064-0.192 0.128 0 0.064-0.128 0.192 0.128 0.064 0.192 0.192 0.128 0.064 0.256 0 0.704-0.128 1.408-0.32 0.704-0.256 1.408-0.384 1.088-0.256 2.048-0.448t2.048-0.448q0.512-0.128 0.96-0.192t0.96-0.128q0.768-0.128 1.472-0.256 0.768-0.192 1.536-0.256 1.664-0.128 3.328-0.192 1.664-0.128 3.328-0.192 0.448 0 0.832 0.128 0.448 0.064 0.832 0.064 1.472 0 2.752 0.384 1.344 0.384 2.624 1.024 1.92 0.896 3.2 2.816 0.256 0.32 0.512 0.704 0.32 0.32 0.576 0.64 0.576 0.896 0.896 1.856 0.384 0.896 0.32 1.984 0 0.384 0.128 0.768t0.256 0.704zm-30.656-14.784q-0.256 0.256-0.512 0.512-0.192 0.256 0.064 0.768 0.128 0.128 0.256 0.256 0.128 0.064 0.384 0.256-0.128-0.768 0-1.088 0.192-0.384 0.704-0.768 1.088-0.768 2.24-1.664 0.128-0.128 0.256-0.448-0.448-0.128-0.768 0t-0.64 0.384q-0.512 0.512-1.024 0.96-0.448 0.384-0.96 0.832zm-10.88 8.896q0.32-0.064 0.896-0.512t1.088-1.024q0.576-0.576 0.96-1.088 0.448-0.512 0.448-0.832-0.896 0.832-1.728 1.664-0.832 0.768-1.728 1.536 0 0.128 0 0.192 0.064 0 0.064 0.064zm4.416-4.288q0.768 0.064 1.088-0.448 0.32-0.576 0.768-1.024l-0.192-0.192q-0.448 0.384-0.896 0.768-0.384 0.32-0.896 0.704 0.064 0.064 0.064 0.128 0 0 0.064 0.064zm3.072-1.088q0.128 0 0.32 0.064 0.256 0.064 0.384-0.064 1.152-1.088 2.24-2.24-0.384 0.128-0.832 0.192-0.384 0.064-0.832 0.192 0.128 0.32 0.128 0.448t0.064 0.192q-0.448 0.256-0.832 0.512-0.384 0.192-0.768 0.448 0.128 0.256 0.128 0.256zm10.048 3.136q0.384-0.128 0.704-0.192 0.384-0.064 0.704-0.128-1.28-0.96-1.408 0.32zm5.376-0.96q-0.512-0.512-1.152-0.448t-1.344 0.704q0.128 0.128 0.256 0.256 0.192 0.064 0.32 0.064zm12.16 0.384q0-0.192 0.064-0.32-0.704-0.192-1.344-0.384-0.576-0.256-1.216-0.384-0.512-0.128-0.96 0-0.384 0.064-0.768-0.064-0.896-0.256-1.792-0.256-0.832 0-1.728 0-0.448 0-0.896 0.064-0.384 0.064-0.768 0-0.768-0.128-1.472 0.192-0.64 0.256-1.216 0.704 0.32 0.32 0.448 0.32 0.384 0 0.704-0.064 0.384-0.064 0.768-0.064 1.408-0.064 2.816-0.064t2.816 0q0.256 0 0.448-0.064t0.384-0.064q0.832 0.128 1.6 0.256t1.472 0.256q0.128 0 0.32 0 0.192-0.064 0.32-0.064z"/>
    <path d="m476.55-269.84v0.064zm0.896 26.432q0.128 0.704 0.512 1.152 0.448 0.448 0.832 0.768 0.384 0.256 0.576 0.448 0.192 0.128-0.192 0.32-0.32 0-0.576 0.192-0.576 0.384-1.152 0.192-0.512-0.192-1.024-0.384-0.512-0.128-0.768-0.448t-0.448-0.64q-0.32-0.448-0.768-0.768-0.384-0.32-0.64-0.768-0.832-1.6-1.408-3.52-0.704-2.176-0.32-4.288t1.088-4.16q0.704-2.24 1.536-4.352 0.832-2.176 1.792-4.224 0.512-1.024 1.024-1.984 0.512-1.024 1.024-2.048 0-0.064 0-0.064 0.064-0.064 0.064-0.192h-0.256q-0.64 0.64-1.28 1.28-0.576 0.576-1.152 1.216-0.512 0.512-0.896 1.024t-0.896 1.024q-0.576 0.64-1.216 1.28-0.576 0.576-1.152 1.216-0.512 0.576-1.024 1.152-0.448 0.512-0.96 1.088-0.192 0.32-0.384 0.576t-0.448 0.512q-0.128 0.128-0.32 0.128t-0.256 0q-0.128 0.32-0.192 0.576 0 0.192-0.128 0.32-0.704 0.896-1.472 1.792-0.704 0.896-1.472 1.792l-0.064 0.064q-0.128 0.832-0.64 1.408-0.448 0.576-0.896 1.152-0.512 0.704-1.088 1.28-0.512 0.576-1.024 1.216-0.448 0.512-0.832 1.152-0.32 0.576-0.832 1.024-0.512 0.32-0.704 0.896-0.128 0.512-0.704 0.704-0.128 0-0.256 0.128-0.064 0.064 0 0.192 0.128 0.448-0.128 0.64t-0.576 0.512q-0.832 0.704-1.536 1.856-0.576 0.768-1.472 0.832t-1.6-0.64q-0.448-0.384-0.768-0.768-0.256-0.448-0.32-1.088 0-0.064-0.128-0.192-0.704-0.32-1.088-0.96-0.384-0.704-0.704-1.408-0.128-0.32-0.256-0.64-0.128-0.384-0.192-0.704-0.64-3.136 0.256-6.336 0.384-1.536 0.832-3.008 0.512-1.472 1.024-2.944 0.064-0.192 0.128-0.32 0.128-0.128 0.192-0.256 0.128-0.32 0.192-0.576t0.192-0.576q0.192-0.512 0.448-1.024 0.256-0.576 0.512-1.088 0.192-0.448 0.384-0.896t0.384-0.896q0.384-0.704 0.704-1.344 0.384-0.704 0.768-1.408 0.704-1.216 1.344-2.368 0.64-1.216 1.344-2.432 1.344-2.24 2.944-4.416 0.896-1.28 1.856-2.56t2.048-2.56q0.704-0.832 1.472-1.536 0.832-0.768 1.6-1.472 1.856 0.32 3.264 1.344t2.752 2.112q0.704 0.576 1.408 1.152t1.408 1.216q0.32 0.192 0.512 0.448 0.192 0.192 0.448 0.448 0.768 0.704 1.536 1.408 0.832 0.704 1.6 1.408 0.128 0.128 0.32 0.256t0.448 0.256q-0.256 0.064-0.512 0.192v0.192q0.32 0.192 0.448 0.064 0.448-0.256 0.832-0.448 0.384-0.256 0.832-0.512 0.256-0.256 0.448-0.128 0.384 0.128 0.896 0.192 0.512 0 0.64 0.704 0.064 0.128 0.32 0.192t0.448 0.192 0.32 0.192q0.192 0.064 0.384 0.192 0.128 0.064 0.192 0.064 0.128-0.064 0.256 0.064 0.448 0.512 0.896 0.96t0.832 0.96q0.32 0.512 0.128 1.344-0.128 0.832-0.64 1.152-0.192 0.192-0.192 0.256-0.128 0.192-0.192 0.384 0 0.192-0.128 0.32-0.896 0.96-1.408 2.112-0.128 0.32-0.448 0.64t-0.576 0.64q-0.32 0.512-0.64 1.024t-0.576 1.024q-0.512 0.96-1.024 1.984-0.448 0.96-1.216 1.792-0.32 0.32-0.512 0.768-0.192 0.384-0.384 0.832-0.448 0.832-0.704 1.6-0.128 0.448-0.256 0.896-0.064 0.384-0.256 0.768-0.128 0.32-0.32 0.64-0.192 0.256-0.064 0.64 0 0-0.064 0.128-0.704 0.32-0.64 0.96 0.064 0.576-0.128 1.088-0.128 0.32-0.384 0.704-0.192 0.32-0.32 0.704-0.192 0.96-0.384 1.92-0.128 0.896-0.192 1.856 0 0.512 0 1.024 0.064 0.448 0.128 0.832zm-26.496-7.04q-0.448-0.192-0.512-0.384-0.064-0.256 0-0.512 0.128-0.256 0.256-0.512t0.064-0.512q-1.088 0.768-0.576 1.728 0.064 0.128 0.256 0.192t0.32 0.192zm0.32-3.456q0.192-0.384 0.32-0.768 0.192-0.448 0.384-0.896-0.192 0.128-0.384 0.256-0.192 0.064-0.32 0.192-0.448 0.768-0.704 1.472-0.128 0.192-0.128 0.448 0.064 0.256 0.064 0.448 0.064 0.064 0.256 0.064 0.128-0.32 0.256-0.576 0.128-0.32 0.256-0.64zm1.28-2.944q0.128-0.256-0.064-0.448-0.128-0.192-0.384-0.192-0.32 0.192-0.32 0.448-0.064 0.192 0.192 0.448-0.256 0.192-0.64 0.448 0.128 0.192 0.32 0.32 0.192 0.064 0.32 0.192 0.128-0.32 0.256-0.576 0.192-0.32 0.32-0.64zm0.192-0.832q0.128-0.128 0.128-0.256t0.128-0.256q0.128-0.192 0.192-0.384 0.064-0.256 0.192-0.448 0.32-0.512 0.64-0.896 0.32-0.448 0.576-0.96 0.32-0.896 0.64-1.728 0.32-0.896 0.832-1.728 0.128-0.128 0.064-0.256 0-0.192 0.128-0.32 0.512-0.896 1.024-1.6 0.128-0.256 0.192-0.448 0.128-0.256 0.256-0.512-0.128-0.128-0.128-0.192-0.128 0.128-0.256 0.192-0.128 0-0.256 0.128-0.448 0.64-0.832 1.28-0.384 0.576-0.832 1.28-0.064 0.128-0.064 0.256 0 0.064-0.064 0.128-0.704 0.448-0.896 1.088-0.128 0.64-0.256 1.28-0.064 0.128-0.064 0.192t-0.064 0.128q-0.32 0.32-0.576 0.704-0.256 0.32-0.128 0.832 0.192 0.192-0.064 0.192-0.576 0.192-0.576 0.704t-0.32 0.832q-0.128 0.064-0.064 0.32 0.064 0.192 0.192 0.384 0 0.064 0.128 0.128 0.128 0 0.128-0.064zm4.224-6.848q0.576-0.384 0.576-0.448 0.064-0.128-0.32-0.384-0.064 0.192-0.128 0.384t-0.128 0.448zm-0.512 4.736q0.064-0.064 0-0.192t-0.128-0.256q-0.064 0.064-0.192 0.128-0.064 0-0.128 0.064-0.32 0.384-0.448 0.704 0 0.064 0 0.128 0.064 0 0.064 0.064 0.448-0.256 0.832-0.64zm-3.2 6.208q0.064 0.064 0.192 0.064 0.128-0.32 0.192-0.576 0.128-0.256 0.256-0.576-0.064 0-0.128 0-0.064-0.064-0.192-0.064-0.128 0.32-0.192 0.576 0 0.256-0.128 0.576zm10.624-1.536q0.64-0.32 0.96-0.448-0.32-0.32-0.512-0.256-0.128 0.064-0.448 0.704zm0.96-0.768q0.256-0.384 0.384-0.576 0-0.128-0.128-0.192-0.064-0.064-0.128-0.128-0.256 0.256-0.32 0.384-0.064 0.064 0.192 0.512zm9.088-8.384q-0.064-0.064-0.064-0.128t-0.064-0.128q0-0.064 0-0.128-0.192 0.128-0.384 0.256-0.192 0.064-0.384 0.192 0.128 0.256 0.128 0.32zm2.304-3.904q1.344-1.28 2.688-2.624t2.688-2.624q-0.128-0.128-0.128-0.192-0.896 0.704-1.728 1.408t-1.728 1.408q-0.32 0.32-0.64 0.64t-0.832 0.32q1.024-0.896 1.984-1.728 1.024-0.896 2.112-1.792-0.32-0.128-0.512-0.192t-0.384-0.192q-0.32-0.128-0.64-0.256-0.256-0.192-0.576-0.32-0.256-0.128-0.512-0.32-0.192-0.192-0.512-0.32-0.192-0.128-0.448-0.192-0.192-0.064-0.384-0.192-0.768-0.512-1.536-1.088-0.704-0.64-1.472-1.152-0.384-0.256-0.64-0.128-0.768 0.384-1.344 0.96-0.896 0.896-1.728 1.856t-1.728 1.92q-0.256 0.256-0.512 0.448t-0.512 0.512q-0.32 0.448-0.768 0.768-0.448 0.256-0.704 0.832-0.192 0.512-0.576 0.96t-0.704 0.96q0 0-0.128 0.064-0.32 0.512-0.64 0.96-0.256 0.384-0.576 0.832-0.128 0.192-0.192 0.384t-0.192 0.384q-0.576 0.96-1.216 1.92-0.64 0.896-1.152 1.92-0.64 1.088-1.152 2.176-0.448 1.088-0.96 2.24-0.64 1.408-1.216 2.816-0.576 1.344-1.216 2.752-0.128 0.384-0.256 0.768t-0.64 0.448q0 0.192 0.064 0.384 0.064 0.128-0.064 0.256-0.448 0.512-0.576 1.088-0.064 0.576-0.128 1.216-0.064 0.128-0.064 0.32 0 0.128-0.064 0.256-0.256 0.704-0.32 1.472 0 0.768 0.128 1.472 0 0.128 0.256 0.64 4.416-6.336 9.344-11.968 4.928-5.696 10.176-11.136-0.32 0.512-0.704 0.896-0.32 0.384-0.64 0.832-0.576 0.64-1.152 1.216-0.512 0.576-1.024 1.216-0.384 0.384-0.576 0.64-0.128 0.128-0.256 0.32t-0.256 0.384q-0.064 0.064-0.192 0.128t-0.128 0.128q0.128 0.448-0.064 0.512t-0.512 0.128q-0.256 0.128-0.384 0.256-0.384 0.448-0.768 0.896-0.32 0.384-0.704 0.896-0.064 0.128-0.064 0.256t0 0.256q-0.192 0.128-0.384 0.256t-0.384 0.256q-0.064 0.064-0.128 0.192 0 0.128 0.064 0.192t0.128 0.128q0.128 0.064 0.192 0 0.384 0 0.576-0.32 0.384-0.384 0.704-0.768 0.384-0.448 0.768-0.896 0.128-0.192 0.32-0.384t0.256-0.384q0.064-0.576 0.576-0.448 0.32 0 0.512-0.448 0.32-0.768 0.768-1.216 0.512-0.512 1.024-1.024t1.024-1.024q0.192-0.192 0.256-0.448 0.128-0.256 0.256-0.512 0.128-0.128 0.32-0.192t0.32-0.192q0.256-0.192 0.448-0.448t0.384-0.512 0.384-0.448q0.256-0.256 0.384-0.512 0.192-0.32 0.576-0.512 0.448-0.256 0.832-0.128 0.64 0.384 1.088-0.384-0.32 0-0.64 0.064-0.256 0-0.576 0.064 0-0.064-0.064-0.128 0-0.064 0-0.128z"/>
    <path d="m527.04-264.14q0-0.064-0.064-0.064 0-0.064 0-0.128zm46.784 27.52q0.192-0.384 0.512-0.64-0.128 0.768-0.256 1.472t-0.512 1.344q-0.448 0.512-0.832 1.024t-0.96 0.896q-0.384 0.32-0.832 0.512-0.512 0.32-0.96 0.576-0.384 0.32-0.832 0.512-0.512 0.192-0.96 0.32-0.384 0.128-0.896 0.192-1.088 0.128-2.048 0.192-0.96 0.128-2.048 0.192-0.128 0.064-0.32 0t-0.32 0q-0.384-0.128-0.576 0.064-0.128 0.32-0.384 0.32t-0.64-0.128-0.896-0.192q-0.512 0-0.832-0.512l-0.128-0.064q-0.256 0.192-0.512 0.128t-0.512-0.192-0.512-0.256-0.512-0.128q-0.32 0.064-0.704-0.128-0.32-0.192-0.704-0.384-1.856-0.96-3.648-2.048-1.792-1.024-3.392-2.496-0.896-0.768-1.856-1.472-0.896-0.704-1.792-1.472-1.856-1.728-3.584-3.52-1.728-1.856-3.392-3.712-0.64-0.768-1.28-1.536-0.576-0.832-1.216-1.664-0.64-0.896-1.216-1.792t-1.216-1.792q-0.896-1.536-1.792-3.072t-1.728-3.072q-0.256-0.448-0.512-0.832-0.192-0.448-0.32-0.896-0.192-0.32-0.704-1.408t-0.96-2.304l-0.064 0.256q-0.064-0.128-0.192 0.256-0.064 0.384-0.192 0.256-0.064 0.128 0.192 0.192 0.32 0.064 0.256 0.192-0.128 0.32-0.256 0.576-0.064 0.256-0.192 0.512 0 0.064-0.32 0.192-0.128 0.128-0.32 0.32-0.128 0.192-0.384 0.384l0.512 0.192q0.064 0.064 0.128 0.192 0.128 0.064 0.064 0.128 0 0.32-0.256 0.32-0.448-0.064-0.576 0.192-0.064 0.256-0.192 0.512-0.128 0.384-0.32 0.832t-0.064 0.832q0.128 0.512-0.192 0.832-0.256 0.32-0.256 0.768 0 0.128-0.192 0.192-0.128 0-0.256 0.064-0.128 0-0.256-0.064-0.064-0.064-0.256-0.192l-0.192 1.984q0.128 0.064 0.256 0.128 0.128 0 0.448 0.064-0.768 0.256-1.152 0.64-0.32 0.384 0.192 1.088-0.704 0.512-0.832 1.152-0.128 0.576 0.448 1.024h-0.384q-0.128 0-0.32 0.064-0.128 0-0.256 0 0.064 0.128 0.064 0.256t0.128 0.256q0.32 0.512-0.064 1.024l-0.192-0.32-0.128-0.256-0.128 0.128-0.32 1.216h0.576q0.064 0.32 0.064 0.64 0.064 0.256 0 0.576-0.064 0.256-0.448 0.512-0.128 0.128-0.384 0.128-0.192 0-0.384 0.064v0.192h0.832q0.128 0.256 0.128 0.512 0.064 0.192 0.192 0.384 0.128 0.448-0.128 0.64-0.256 0.128-0.448 0.32l-0.448 0.32 0.448 0.512-0.256 0.192 0.192 0.96q0 0.256 0 0.256-0.256 0.192-0.256 0.448 0 0.192-0.064 0.448-0.064 0.64 0.128 1.088 0.064 0.256-0.064 0.704l-0.192 1.536q-0.832-0.064-1.344-0.512-0.448-0.448-0.768-1.152-0.256-0.64-0.512-1.216-0.256-0.64-0.384-1.28-0.128-0.896-0.256-1.728t-0.128-1.728q0-1.088 0.128-2.176 0.064-1.152 0.192-2.24 0-0.32 0-0.64t0.128-0.64q0.32-0.896 0.384-1.856 0-1.024 0.32-1.984 0.32-1.088 0.448-2.112t0.384-2.112q0.128-0.384 0.192-0.768 0.128-0.384 0.256-0.768 0.064-0.32 0.128-0.512 0.064-0.256 0.192-0.576t0.192-0.512q0.064-0.256 0.128-0.576 0-0.128 0-0.32 0-0.256-0.128-0.32-0.512-0.32-1.024-0.32-0.576 0.064-1.088 0.128-0.576 0.064-1.088 0.064-0.704 0.064-1.344 0.128-0.704 0-1.408-0.128t-1.408-0.32-1.408-0.448q-0.192-0.064-0.32-0.256-0.128-0.256-0.32-0.384l-1.792-1.28q-0.64-0.448-1.216-0.768-0.576-0.384-1.216-0.768l-0.192-0.192q-0.32-0.704-0.704-1.28-0.384-0.64-0.896-1.216-0.256-0.256-0.256-0.384 0.128-0.704-0.256-1.152-0.448-0.512-0.64-1.088-0.128-0.32-0.192-0.576-0.128-0.256-0.128-0.576 0-0.192 0.192-0.384 0.128-0.256 0.32-0.448 0-0.064 0.192 0 0.128 0 0.192 0.064 0.192 0.32 0.384 0.64 0.192 0.256 0.256 0.576 0.128 0.704 0.512 1.088 0.32 0.384 0.832 0.768 0.32 0.192 0.64 0.384 0.256 0.128 0.704 0 0.192-0.128 0.32 0 0.64 0.64 1.472 0.704 0.768 0 1.472 0.192 0.896 0.32 1.792 0.192t1.792-0.128q0.96 0.064 1.92-0.064 0.896-0.192 1.792-0.384 1.664-0.32 3.136-0.768 0.896-0.256 1.984-0.896 0.192-0.128 0.256-0.32 0.128-0.256 0.256-0.512l1.152-3.072q0.32-0.896 0.64-1.856 0.384-0.96 0.768-1.856 0.32-0.768 0.64-1.536t0.64-1.536l1.408-3.392 1.984-4.416 1.28-2.88q0.384-0.832 0.704-1.664t0.768-1.664q0.384-0.832 0.832-1.6 0.512-0.768 0.96-1.536 0.256-0.448 0.448-0.832 0.256-0.384 0.384-0.832 0.192-0.704 0.64-1.088t0.96-0.704q0.64-0.448 1.28-0.064 0.256 0.192 0.512 0.256 0.32 0.064 0.64 0.064 0.512-0.128 0.896 0.192 0.448 0.256 0.896 0.384 0.384 0.128 0.384 0.192 0.064 0.064 0.448 0.256 0.704 0.32 0.768 0.896 0.192 0.192 0.128 0.192 0.448 0.384 0.256 0.768-0.192 0.32-0.192 0.704 0.064 0.512-0.128 0.64-0.128 0.128-0.192 0.512-0.128 0.832-0.576 1.408-0.384 0.512-0.832 1.024-0.064 0.128-0.192 0.192-0.064 0-0.064 0.064-0.064 0.704-0.448 1.152t-0.704 1.024q-0.256 0.512-0.448 1.088-0.128 0.512-0.384 1.024-0.192 0.32-0.448 0.64-0.256 0.256-0.448 0.576-0.256 0.512-0.448 1.024t-0.512 1.024l-1.216 2.24q-0.128 0.256-0.192 0.512t-0.256 0.448q-0.64 0.768-0.96 1.728-0.32 0.896-0.768 1.792-0.128 0.32-0.256 0.704-0.064 0.384-0.448 0.576-0.064 0.064-0.064 0.192 0.192 0.512-0.128 0.832-0.256 0.32-0.512 0.64l-0.128 0.448q0.128-0.064 0.192 0 0.128 0 0.256-0.064l4.416-2.304 4.928-2.688 3.776-2.048 2.688-1.6 2.176-1.472q0.768-0.512 1.536-1.088t1.536-1.152l2.816-2.176q0.064 0 0.128-0.064l2.368-2.24q0.96-0.96 1.856-1.984 0.896-1.088 1.6-2.304 0.576-0.96 1.472-0.064 0.32 0.32 0.512 0.704 0.192 0.32 0.448 0.576t0.384 0.32 0.192 0.128q0.128 0 0.192 0.128 0.128 0.064 0.256 0.32 0.192 0.384 0.064 0.832-0.064 0.32-0.192 0.576t-0.256 0.576q0 0.064-0.064 0.128 0 0 0 0.064 0.128 0.32 0.256 0.576 0.192 0.256 0.384 0.576l-0.896 2.048q-0.128 0.192-0.256 0.384-0.064 0.192-0.192 0.448-0.512 1.024-1.28 1.792t-1.472 1.6q-1.216 1.408-2.688 2.048-0.512 0.192-0.896 0.512-0.32 0.256-0.64 0.576l-0.448 0.384q-0.512 0.384-1.088 0.704-0.512 0.32-0.96 0.832-0.832 0.896-1.792 1.472t-1.856 1.28q-0.448 0.32-0.96 0.576-0.512 0.192-1.024 0.448-0.384 0.256-0.768 0.576-0.32 0.32-0.704 0.32-0.512 0.064-0.896 0.32-0.32 0.256-0.64 0.512l-0.512 0.128-0.448 0.128q-0.64 0.704-1.472 1.152-0.768 0.448-1.664 0.768-0.32 0.128-0.704 0.32-0.32 0.192-0.64 0.32-0.448 0.192-0.896 0.384-0.384 0.128-0.768 0.32l-0.384 0.192q-0.704 0.64-1.408 0.192-0.512 0.768-1.216 1.152-0.64 0.32-1.408 0.64-0.256 0.128-0.704 0.448-0.384 0.256-0.832 0.576-0.192 0.32-0.064 1.28 0.128 0.896 0.384 1.984 0.256 1.024 0.512 1.984 0.256 0.896 0.384 1.088 0.32 0.512 0.512 1.088 0.256 0.576 0.512 1.088 0.128 0.32 0.256 0.64 0.128 0.256 0.512 0.384 0.128 0.064 0.128 0.32 0.064 0.192 0.128 0.32 0.256 0.576 0.448 1.28 0.32 0.512 0.576 0.96 0.32 0.384 0.064 0.96-0.064 0.128 0 0.32 0.128 0.192 0.256 0.32 0.32 0.32 0.64 0.704 0.384 0.384 0.192 1.024 0.384 0.064 0.768 0.384t0.704 0.768q0.32 0.384 0.512 0.832 0.192 0.384 0.192 0.576 0.32 0.448 0.576 0.896 0.256 0.384 0.576 0.768 0.768 0 0.96 0.832 0.064 0.128 0.192 0.256 0.192 0.128 0.32 0.256 1.024 0.704 1.344 1.728 0.128 0.448 0.256 0.896t0.832 0.512l0.064 0.064q0 0.064 0.064 0.064 0.64 0.704 1.216 1.408 0.64 0.64 1.344 1.28 0.256 0.32 0.576 0.576 0.384 0.256 0.512 0.576 0.32 0.64 1.088 1.28 0.256 0.256 0.576 0.32 0.576 0 0.768 0.512 0.128 0.128 0.256 0.256t0.256 0.256 0.192 0.192q0.128 0.128 0.256 0.256 0.064 0 0.064 0.064 0 0.128 0.128 0.192 0.96 0.384 1.664 1.088 0.768 0.768 1.792 1.216 0.832 0.32 1.536 0.704 0.768 0.448 1.6 0.896 0.32 0.128 0.704 0.384t0.832 0.384q0.704 0.256 1.472 0.32 0.832 0.128 1.536 0.384 0.896 0.384 2.112 0.064 1.216-0.256 2.048-0.32 0.128 0 0.256-0.064 0.128 0 0.256 0.064 1.088 0.128 1.536-0.64 0.448-0.704 0.512-1.792-0.064-0.128 0-0.256t0.064-0.32q0.128 0.128 0.256 0.192 0.192 0.128 0.32 0.256 0.064 0.064 0.128 0.064t0.128 0.064v-0.384q0.064-0.128 0.128-0.256 0.064-0.064 0.192-0.192 0 0.192 0.128 0.448 0 0.128 0.128 0.256zm-57.984-33.088q-0.192 0.192-0.192 0.32 0 0.192 0.192 0.192 0.576-0.064 1.408-0.32 0.128 0 0.256-0.32zm-7.68 0.192q0.576 0.064 1.152 0.384 0.512 0.256 1.152 0 0.064 0 0.128 0.064 0 0 0.064 0 0.32 0.064 0.704 0.128 0.32 0 0.64 0l2.24-0.256q0.064 0 0.192 0.128 0.576 0.256 0.768-0.576l-1.152 0.128q-0.448 0-0.832 0.064-0.384 0-0.832 0-0.192 0-0.384 0-0.256-0.064-0.448-0.064l-2.112-0.192q-0.192 0-0.384-0.064-0.192-0.128-0.32-0.192-0.32-0.128-0.96-0.256l-0.64-0.192q0 0.128-0.128 0.256 0.32 0.128 0.576 0.384 0.256 0.192 0.576 0.256zm11.648 0.384q0.64-0.256 1.28-0.448t1.088-0.768q0.128-0.064 0.128-0.384l-0.384 0.128q-0.448 0.256-0.896 0.512-0.384 0.256-0.896 0.128-0.128 0-0.256 0.064-0.064 0.064-0.192 0.128-0.576 0.384-0.832-0.256 0-0.128-0.192-0.192-0.128-0.128-0.256-0.064-0.256 0.064-0.512 0.448-0.064 0.064-0.064 0.32 0.128 0.192 0.32 0 0.128-0.064 0.192-0.064 0.128-0.064 0.256-0.192 0 0.064 0 0.128 0.064 0 0.064 0.064-0.32 0.128-0.512 0.448-0.128 0.256-0.64-0.064-0.064 0-0.128 0.064-0.128 0.064-0.256 0.128-0.256 0.064-0.448 0.192-0.256 0.064-0.512 0.128-0.448 0-0.896 0-0.448-0.064-0.896-0.064-0.704 0.128-1.408 0.256t-1.408 0.128q-0.576-0.064-1.216 0.064t-1.152-0.384q-0.256 0-0.256 0.064 0 0.32 0.064 0.32 0.192 0.192 0.448 0.384 0.192 0.128 0.512 0 0.384-0.128 0.768-0.064t0.704 0.384q0.064 0.128 0.448 0.128h0.576q0.128-0.384 0.384-0.32 0.192 0.064 0.384 0.32 0.128-0.128 0.256-0.128 0.128-0.064 0.256-0.192 0.256 0.384 0.256 0.448 0.512-0.128 1.024-0.32 0.448-0.192 0.896-0.32t0.896-0.192q0.448-0.128 0.896-0.256 0.512-0.128 1.024-0.256 0.576-0.192 1.088-0.448zm-1.92 22.912h-0.192q0 0.384-0.064 0.768-0.128 0.384 0.256 0.768zm0.256-1.792q-0.896 0.832-0.192 1.536zm-0.128-0.256q0-0.448 0.384-0.768t0-0.832q-0.064-0.064-0.064-0.128 0.064-0.128 0.064-0.192 0.128-0.512 0.192-1.024 0.128-0.576 0.256-1.088 0.128-0.576 0.256-1.088 0.128-0.576 0.256-1.088l0.128-0.896h-0.128q0.128-0.32 0.192-0.64 0.128-0.384 0.256-0.704t0.256-0.64q0.128-0.384-0.064-0.768 0 0 0-0.192l0.704-1.92q0.128-0.32 0.192-0.576 0.128-0.256 0.128-0.576-0.064-0.832 0.384-1.472 0.192-0.256 0.192-0.768 0.064-0.128 0-0.256t-0.128-0.128q-0.32-0.128-0.448 0.128-0.192 0.32-0.192 0.64l-0.192 1.792t-0.128 0.128q-0.128 0.32-0.32 0.576-0.192 0.192-0.256 0.512l-0.32 2.368q0 0.128-0.064 0.192 0 0 0 0.064l-0.448 0.96-0.32 1.6q-0.128 0.576-0.384 1.152-0.192 0.576-0.064 1.152 0.064 0.704-0.128 1.408-0.192 0.64-0.256 1.344-0.064 0.448-0.064 0.896-0.064 0.384 0.128 0.832zm0.96 3.264q0-0.256 0-0.448 0.064-0.192 0.064-0.512-0.512 0.256-0.576 0.576-0.064 0.256 0 0.576 0 0.576 0.064 0.896 0 0.256 0.064 0.384h0.192q0.128-0.256 0.128-0.384 0.064-0.32 0.064-0.512 0-0.256 0-0.576zm3.2-11.264q0.512-0.256 0-0.768l-0.384 0.832q0.32 0 0.384-0.064zm0.64-3.712q0.256 0.128 0.384 0t0.064-0.448q-0.256 0-0.256 0-0.192 0-0.576-0.128l0.192-0.576q0.064-0.128 0.128-0.192 0.128-0.064 0.128-0.192l0.192-2.24q-0.32-0.064-0.448 0t-0.256 0.512q-0.128 0.704-0.32 1.344-0.192 0.576-0.384 1.28l-0.384 1.6q-0.128 0.384-0.256 0.768t-0.192 0.832q0 0.896-0.64 1.216 0.064 0.192 0.064 0.32 0.064 0.128 0.064 0.256l-0.512 2.368q-0.064 0.384-0.192 0.768-0.064 0.32-0.192 0.704l-0.32 2.368q0 0.256-0.064 0.448 0 0.192 0 0.448l-0.192 0.896-0.128 0.832q0 0.192-0.128 0.576 0.96-0.256 0.704-1.024-0.064-0.128 0.064-0.576t0.192-0.896q0.128-0.448-0.256-0.96 0.512-0.128 0.576-0.384 0.064-0.32-0.064-0.704 0-0.128 0.128-0.384 0.128-0.32 0.32-0.704 0.192-0.448 0.128-0.768-0.064-0.448 0.064-0.768 0.128-0.384 0.256-0.704 0.064-0.32 0.128-0.64 0.128-0.32 0.256-0.64 0.128-0.384 0.128-0.768t0.128-0.704l0.832-2.624q0.064-0.064 0-0.128-0.128-0.512 0.064-0.512t0.576 0.128zm1.856-3.904q0.064-0.064 0.064-0.32-0.256 0-0.32 0.064-0.128 0.128-0.256 0.32-0.064 0.192-0.192 0.32 0.128 0.128 0.128 0.128zm9.728-11.072q0.448 0.128 0.576 0t0.256-0.576zm-2.88-0.896q-0.064 0.128 0 0.256 0.064 0.064 0.064 0.192l0.448-0.128q0.064-0.064 0.064-0.128 0.064-0.064 0.128-0.128l0.128-0.128q0.256 0.192 0.384 0.064 0.192-0.128 0.384-0.256 0.192-0.192 0.32-0.192 0.192-0.064 0.448 0.192 0 0 0.064-0.064l0.128-0.448q0 0.064 0 0.064 0.064 0 0.064 0.064l1.984-1.344 0.32 0.448h0.192q-0.064-0.256-0.064-0.576 0.128-0.064 0.256-0.128 0.192-0.128 0.32-0.192 0.192-0.064 0.384 0 0.192 0 0.384 0 0.064 0 0.064-0.064t0.064-0.064l1.024-0.704q0.128-0.064 0.192-0.064 0.128 0 0.256-0.128 0.832-1.024 2.24-1.536 0.448-0.128 0.832-0.384 0.384-0.32 0.768-0.576 0.064-0.064 0.064-0.512l-0.512 0.128q-0.32 0.192-0.576 0.448-0.192 0.256-0.512 0.384-0.512 0.32-1.024 0.512-0.512 0.128-1.024 0.384l-2.368 1.344q-0.768 0.384-1.536 0.832-0.704 0.384-1.472 0.832-0.384 0.128-0.768 0.256t-0.704 0.32q-0.384 0.192-0.832 0.384-0.448 0.128-0.576 0.64zm-4.928 0.96q0.064 0 0.32 0.128 0.128-0.512 0.256-0.768l-0.256-0.128zm18.816 33.024q0.128-0.64-0.064-0.768-0.128-0.128-0.832 0 0.256 0.192 0.448 0.384t0.448 0.384zm2.432 1.856q-0.256-0.256-0.448-0.448-0.192-0.256-0.384-0.512-0.064-0.064-0.192-0.064t-0.256 0q0 0.256 0.064 0.384 0.256 0.192 0.448 0.384 0.256 0.192 0.576 0.448zm0.576 0.96q0.96 0.768 1.92 1.472 0.96 0.768 1.984 1.536 0-0.256-0.576-0.832-0.512-0.512-1.216-1.024-0.64-0.512-1.216-0.96-0.576-0.384-0.768-0.384-0.064 0.064-0.064 0.064 0 0.064-0.064 0.128zm0.96 2.944q0.384 0.32 0.768 0.64 0.448 0.384 0.896 0.704-0.064-0.576-0.64-1.024-0.512-0.448-1.024-0.32zm1.92 1.344q1.088 1.152 1.856 0.96-0.96-1.152-1.856-0.96zm5.76 1.856q0.32 0.256 0.896 0.256 0.64 0.064 0.96-0.192-0.704-0.32-1.472-0.512-0.704-0.192-1.28-0.704t-1.28-0.704q-0.64-0.128-1.28-0.576l-0.128 0.128q0.128 0.128 0.256 0.256 0.128 0.192 0.32 0.256 1.792 0.704 3.008 1.792z"/>
    <path d="m582.08-269.84v0.064zm0.896 26.432q0.128 0.704 0.512 1.152 0.448 0.448 0.832 0.768 0.384 0.256 0.576 0.448 0.192 0.128-0.192 0.32-0.32 0-0.576 0.192-0.576 0.384-1.152 0.192-0.512-0.192-1.024-0.384-0.512-0.128-0.768-0.448t-0.448-0.64q-0.32-0.448-0.768-0.768-0.384-0.32-0.64-0.768-0.832-1.6-1.408-3.52-0.704-2.176-0.32-4.288t1.088-4.16q0.704-2.24 1.536-4.352 0.832-2.176 1.792-4.224 0.512-1.024 1.024-1.984 0.512-1.024 1.024-2.048 0-0.064 0-0.064 0.064-0.064 0.064-0.192h-0.256q-0.64 0.64-1.28 1.28-0.576 0.576-1.152 1.216-0.512 0.512-0.896 1.024t-0.896 1.024q-0.576 0.64-1.216 1.28-0.576 0.576-1.152 1.216-0.512 0.576-1.024 1.152-0.448 0.512-0.96 1.088-0.192 0.32-0.384 0.576t-0.448 0.512q-0.128 0.128-0.32 0.128t-0.256 0q-0.128 0.32-0.192 0.576 0 0.192-0.128 0.32-0.704 0.896-1.472 1.792-0.704 0.896-1.472 1.792l-0.064 0.064q-0.128 0.832-0.64 1.408-0.448 0.576-0.896 1.152-0.512 0.704-1.088 1.28-0.512 0.576-1.024 1.216-0.448 0.512-0.832 1.152-0.32 0.576-0.832 1.024-0.512 0.32-0.704 0.896-0.128 0.512-0.704 0.704-0.128 0-0.256 0.128-0.064 0.064 0 0.192 0.128 0.448-0.128 0.64t-0.576 0.512q-0.832 0.704-1.536 1.856-0.576 0.768-1.472 0.832t-1.6-0.64q-0.448-0.384-0.768-0.768-0.256-0.448-0.32-1.088 0-0.064-0.128-0.192-0.704-0.32-1.088-0.96-0.384-0.704-0.704-1.408-0.128-0.32-0.256-0.64-0.128-0.384-0.192-0.704-0.64-3.136 0.256-6.336 0.384-1.536 0.832-3.008 0.512-1.472 1.024-2.944 0.064-0.192 0.128-0.32 0.128-0.128 0.192-0.256 0.128-0.32 0.192-0.576t0.192-0.576q0.192-0.512 0.448-1.024 0.256-0.576 0.512-1.088 0.192-0.448 0.384-0.896t0.384-0.896q0.384-0.704 0.704-1.344 0.384-0.704 0.768-1.408 0.704-1.216 1.344-2.368 0.64-1.216 1.344-2.432 1.344-2.24 2.944-4.416 0.896-1.28 1.856-2.56t2.048-2.56q0.704-0.832 1.472-1.536 0.832-0.768 1.6-1.472 1.856 0.32 3.264 1.344t2.752 2.112q0.704 0.576 1.408 1.152t1.408 1.216q0.32 0.192 0.512 0.448 0.192 0.192 0.448 0.448 0.768 0.704 1.536 1.408 0.832 0.704 1.6 1.408 0.128 0.128 0.32 0.256t0.448 0.256q-0.256 0.064-0.512 0.192v0.192q0.32 0.192 0.448 0.064 0.448-0.256 0.832-0.448 0.384-0.256 0.832-0.512 0.256-0.256 0.448-0.128 0.384 0.128 0.896 0.192 0.512 0 0.64 0.704 0.064 0.128 0.32 0.192t0.448 0.192 0.32 0.192q0.192 0.064 0.384 0.192 0.128 0.064 0.192 0.064 0.128-0.064 0.256 0.064 0.448 0.512 0.896 0.96t0.832 0.96q0.32 0.512 0.128 1.344-0.128 0.832-0.64 1.152-0.192 0.192-0.192 0.256-0.128 0.192-0.192 0.384 0 0.192-0.128 0.32-0.896 0.96-1.408 2.112-0.128 0.32-0.448 0.64t-0.576 0.64q-0.32 0.512-0.64 1.024t-0.576 1.024q-0.512 0.96-1.024 1.984-0.448 0.96-1.216 1.792-0.32 0.32-0.512 0.768-0.192 0.384-0.384 0.832-0.448 0.832-0.704 1.6-0.128 0.448-0.256 0.896-0.064 0.384-0.256 0.768-0.128 0.32-0.32 0.64-0.192 0.256-0.064 0.64 0 0-0.064 0.128-0.704 0.32-0.64 0.96 0.064 0.576-0.128 1.088-0.128 0.32-0.384 0.704-0.192 0.32-0.32 0.704-0.192 0.96-0.384 1.92-0.128 0.896-0.192 1.856 0 0.512 0 1.024 0.064 0.448 0.128 0.832zm-26.496-7.04q-0.448-0.192-0.512-0.384-0.064-0.256 0-0.512 0.128-0.256 0.256-0.512t0.064-0.512q-1.088 0.768-0.576 1.728 0.064 0.128 0.256 0.192t0.32 0.192zm0.32-3.456q0.192-0.384 0.32-0.768 0.192-0.448 0.384-0.896-0.192 0.128-0.384 0.256-0.192 0.064-0.32 0.192-0.448 0.768-0.704 1.472-0.128 0.192-0.128 0.448 0.064 0.256 0.064 0.448 0.064 0.064 0.256 0.064 0.128-0.32 0.256-0.576 0.128-0.32 0.256-0.64zm1.28-2.944q0.128-0.256-0.064-0.448-0.128-0.192-0.384-0.192-0.32 0.192-0.32 0.448-0.064 0.192 0.192 0.448-0.256 0.192-0.64 0.448 0.128 0.192 0.32 0.32 0.192 0.064 0.32 0.192 0.128-0.32 0.256-0.576 0.192-0.32 0.32-0.64zm0.192-0.832q0.128-0.128 0.128-0.256t0.128-0.256q0.128-0.192 0.192-0.384 0.064-0.256 0.192-0.448 0.32-0.512 0.64-0.896 0.32-0.448 0.576-0.96 0.32-0.896 0.64-1.728 0.32-0.896 0.832-1.728 0.128-0.128 0.064-0.256 0-0.192 0.128-0.32 0.512-0.896 1.024-1.6 0.128-0.256 0.192-0.448 0.128-0.256 0.256-0.512-0.128-0.128-0.128-0.192-0.128 0.128-0.256 0.192-0.128 0-0.256 0.128-0.448 0.64-0.832 1.28-0.384 0.576-0.832 1.28-0.064 0.128-0.064 0.256 0 0.064-0.064 0.128-0.704 0.448-0.896 1.088-0.128 0.64-0.256 1.28-0.064 0.128-0.064 0.192t-0.064 0.128q-0.32 0.32-0.576 0.704-0.256 0.32-0.128 0.832 0.192 0.192-0.064 0.192-0.576 0.192-0.576 0.704t-0.32 0.832q-0.128 0.064-0.064 0.32 0.064 0.192 0.192 0.384 0 0.064 0.128 0.128 0.128 0 0.128-0.064zm4.224-6.848q0.576-0.384 0.576-0.448 0.064-0.128-0.32-0.384-0.064 0.192-0.128 0.384t-0.128 0.448zm-0.512 4.736q0.064-0.064 0-0.192t-0.128-0.256q-0.064 0.064-0.192 0.128-0.064 0-0.128 0.064-0.32 0.384-0.448 0.704 0 0.064 0 0.128 0.064 0 0.064 0.064 0.448-0.256 0.832-0.64zm-3.2 6.208q0.064 0.064 0.192 0.064 0.128-0.32 0.192-0.576 0.128-0.256 0.256-0.576-0.064 0-0.128 0-0.064-0.064-0.192-0.064-0.128 0.32-0.192 0.576 0 0.256-0.128 0.576zm10.624-1.536q0.64-0.32 0.96-0.448-0.32-0.32-0.512-0.256-0.128 0.064-0.448 0.704zm0.96-0.768q0.256-0.384 0.384-0.576 0-0.128-0.128-0.192-0.064-0.064-0.128-0.128-0.256 0.256-0.32 0.384-0.064 0.064 0.192 0.512zm9.088-8.384q-0.064-0.064-0.064-0.128t-0.064-0.128q0-0.064 0-0.128-0.192 0.128-0.384 0.256-0.192 0.064-0.384 0.192 0.128 0.256 0.128 0.32zm2.304-3.904q1.344-1.28 2.688-2.624t2.688-2.624q-0.128-0.128-0.128-0.192-0.896 0.704-1.728 1.408t-1.728 1.408q-0.32 0.32-0.64 0.64t-0.832 0.32q1.024-0.896 1.984-1.728 1.024-0.896 2.112-1.792-0.32-0.128-0.512-0.192t-0.384-0.192q-0.32-0.128-0.64-0.256-0.256-0.192-0.576-0.32-0.256-0.128-0.512-0.32-0.192-0.192-0.512-0.32-0.192-0.128-0.448-0.192-0.192-0.064-0.384-0.192-0.768-0.512-1.536-1.088-0.704-0.64-1.472-1.152-0.384-0.256-0.64-0.128-0.768 0.384-1.344 0.96-0.896 0.896-1.728 1.856t-1.728 1.92q-0.256 0.256-0.512 0.448t-0.512 0.512q-0.32 0.448-0.768 0.768-0.448 0.256-0.704 0.832-0.192 0.512-0.576 0.96t-0.704 0.96q0 0-0.128 0.064-0.32 0.512-0.64 0.96-0.256 0.384-0.576 0.832-0.128 0.192-0.192 0.384t-0.192 0.384q-0.576 0.96-1.216 1.92-0.64 0.896-1.152 1.92-0.64 1.088-1.152 2.176-0.448 1.088-0.96 2.24-0.64 1.408-1.216 2.816-0.576 1.344-1.216 2.752-0.128 0.384-0.256 0.768t-0.64 0.448q0 0.192 0.064 0.384 0.064 0.128-0.064 0.256-0.448 0.512-0.576 1.088-0.064 0.576-0.128 1.216-0.064 0.128-0.064 0.32 0 0.128-0.064 0.256-0.256 0.704-0.32 1.472 0 0.768 0.128 1.472 0 0.128 0.256 0.64 4.416-6.336 9.344-11.968 4.928-5.696 10.176-11.136-0.32 0.512-0.704 0.896-0.32 0.384-0.64 0.832-0.576 0.64-1.152 1.216-0.512 0.576-1.024 1.216-0.384 0.384-0.576 0.64-0.128 0.128-0.256 0.32t-0.256 0.384q-0.064 0.064-0.192 0.128t-0.128 0.128q0.128 0.448-0.064 0.512t-0.512 0.128q-0.256 0.128-0.384 0.256-0.384 0.448-0.768 0.896-0.32 0.384-0.704 0.896-0.064 0.128-0.064 0.256t0 0.256q-0.192 0.128-0.384 0.256t-0.384 0.256q-0.064 0.064-0.128 0.192 0 0.128 0.064 0.192t0.128 0.128q0.128 0.064 0.192 0 0.384 0 0.576-0.32 0.384-0.384 0.704-0.768 0.384-0.448 0.768-0.896 0.128-0.192 0.32-0.384t0.256-0.384q0.064-0.576 0.576-0.448 0.32 0 0.512-0.448 0.32-0.768 0.768-1.216 0.512-0.512 1.024-1.024t1.024-1.024q0.192-0.192 0.256-0.448 0.128-0.256 0.256-0.512 0.128-0.128 0.32-0.192t0.32-0.192q0.256-0.192 0.448-0.448t0.384-0.512 0.384-0.448q0.256-0.256 0.384-0.512 0.192-0.32 0.576-0.512 0.448-0.256 0.832-0.128 0.64 0.384 1.088-0.384-0.32 0-0.64 0.064-0.256 0-0.576 0.064 0-0.064-0.064-0.128 0-0.064 0-0.128z"/>
    <path d="m613.12-270.8q0.512 1.088-0.32 1.728-0.192 0.128-0.32 0.32t-0.256 0.512q-0.32 0.256-0.64 0.576-0.32 0.256-0.64 0.64 0.256 0.32 0.256 0.576t-0.512 0.448q-0.192 0.128-0.32 0.448-0.064 0.32-0.256 0.768 0.832-0.128 0.896-0.192 0.512-0.704 0.96-1.408 0.448-0.768 0.96-1.472 0.384-0.512 0.768-1.024t0.832-1.024q0.128-0.256 0.384-0.448 0.256-0.256 0.256-0.512 0-0.704 0.448-0.96 0.512-0.32 0.832-0.768 0.32-0.512 0.64-0.896 0.32-0.448 0.64-0.96 0.384-0.512 0.704-0.96 0.32-0.512 0.704-0.96 1.088-1.152 2.176-2.24 1.088-1.152 2.176-2.24 0.192-0.256 0.384-0.448 0.256-0.192 0.512-0.384l0.128 0.128q-0.896 0.896-1.728 1.792t-1.728 1.792q0 0.064 0.128 0.192 0.512-0.128 0.704-0.32 0.768-0.704 1.472-1.472 0.768-0.768 1.472-1.472 0.704-0.576 0.256-1.216 0.32-0.384 0.576-0.768 0.32-0.384 0.64-0.768 0.128-0.128 0.064-0.256 0-0.128 0.064-0.256-0.32 0-0.576 0.128-0.576 0.448-1.152 0.832-0.512 0.384-1.152 0.704 0.064-0.064 0.064-0.128 0.064-0.064 0.128-0.128 0.96-0.768 1.856-1.472 0.96-0.768 1.856-1.6 0.256-0.192 0.32-0.512 0.128-0.32 0.32-0.576 0.256-0.32 0.512-0.512 0.256-0.256 0.576-0.512 0.128-0.064 0.256-0.064 0.192 0 0.192 0.064 0.256 0.576 0.704 0.448 0.448-0.192 0.768-0.064 0.448 0.192 0.832 0.448 0.384 0.192 0.832 0.448 0.256 0.128 0.448 0.32 0.256 0.192 0.576 0.448 0 0.576 0.896 1.088 0.32 0.128 0.448 0.576 0.128 0.384 0.32 0.768 0.128 0.32 0.192 0.704 0.128 0.32 0 0.768-0.128 0.512-0.192 1.088 0 0.512-0.128 1.024-0.064 0.256-0.256 0.512-0.128 0.256-0.256 0.512-0.896 1.28-1.792 2.56t-1.792 2.56q-0.192 0.256-0.256 0.576-0.064 0.256-0.192 0.512-0.192 0.512-0.384 0.96t-0.704 0.768q-0.256 0.192-0.384 0.64-0.064 0.384-0.256 0.704-0.192 0.512-0.448 0.96-0.256 0.384-0.512 0.832-0.32 0.448-0.448 0.96-0.064 0.448-0.256 0.896-0.384 0.704-0.256 1.536 0.128 0.768-0.384 1.536-0.256 0.384-0.192 1.024 0.128 0.64 0.064 1.28 0 0.192-0.064 0.448 0 0.192 0 0.448 0.256 0.512 0.448 1.088 0.256 0.512 0.512 1.088-1.088 0.768-2.176 0-2.432-1.664-3.392-4.032-0.96-2.432-0.96-5.248 0.064-4.544 1.92-8.896 0.256-0.512 0.384-1.088 0.192-0.576 0.384-1.152l-0.192-0.192q-0.128 0.128-0.384 0.256-0.192 0.128-0.32 0.256-0.704 0.768-1.344 1.536t-1.344 1.6q-0.32 0.448-0.576 0.96-0.256 0.448-0.576 0.96-0.192 0.32-0.448 0.576-0.192 0.256-0.448 0.576-0.576 0.832-1.216 1.664-0.576 0.768-1.088 1.664-1.344 2.048-2.624 4.16-1.28 2.048-2.56 4.16-1.088 1.856-2.048 3.776t-1.92 3.776q-0.832 1.536-1.536 3.136-0.704 1.536-1.536 3.072-0.384 0.768-0.896 1.472-0.448 0.64-0.768 1.344-0.384 0.832-0.96 1.472-0.512 0.576-1.024 1.28-0.896 1.472-2.432 0.448-0.384-0.256-0.832-0.384-0.384-0.128-0.704-0.64-0.768-1.088-1.152-2.304t-0.512-2.496q-0.256-3.328 0.384-6.592 0.896-4.544 2.496-8.768 0.512-1.344 1.024-2.688 0.576-1.408 1.152-2.752 0.64-1.472 1.28-2.88t1.28-2.88q0.32-0.64 0.576-1.216 0.32-0.576 0.512-1.216 0.32-1.152 0.96-2.112 0.704-1.024 1.152-2.112 0.448-1.152 1.024-2.176 0.576-1.088 1.088-2.176 0.512-1.408 2.048-1.792 0.128 0.384 0.32 0.512 0.256 0.128 0.448 0.128 0.256-0.064 0.512-0.064 0.32-0.064 0.512 0v0.576q0.704-0.256 1.088 0.064 0.448 0.256 0.896 0.704 0.512 0.512 1.024 1.024 0.576 0.512 0.896 1.28 0.064 0.128 0.128 0.32t0.064 0.32q-0.256 0.96-0.384 1.984t-0.896 1.856q-0.576 0.704-1.152 1.408-0.512 0.64-0.832 1.536-0.064 0.32-0.384 0.512-0.256 0.192-0.384 0.512-0.384 0.704-0.768 1.536-0.32 0.768-0.704 1.472-0.192 0.384-0.448 0.768-0.256 0.32-0.576 0.576-0.896 0.576-1.344 1.408-0.384 0.832-0.704 1.728-0.192 0.576-0.512 1.088-0.256 0.448-0.96 0.576 0.384 0.704 0.128 1.344-0.256 0.576-0.704 1.088-0.256 0.32-0.512 0.704-0.256 0.32-0.128 0.896 0.064 0.256-0.256 0.576-0.256 0.256-0.384 0.576-0.384 0.704-0.832 1.472-0.448 0.704-0.64 1.408-0.128 0.704-0.512 1.408-0.32 0.64 0 1.408 0.128 0.192-0.128 0.512t-0.384 0.64q-0.192 0.384-0.32 0.832t-0.32 1.024q0.192-0.128 0.32-0.192 0.192-0.064 0.32-0.192l4.608-8.448q0.768-1.344 1.536-2.688t1.6-2.688q0.576-0.96 1.216-1.92t1.28-1.984q0.32-0.512 0.64-1.088 0.384-0.576 0.768-1.088 0.128-0.256 0.32-0.448t0.448-0.512zm-2.752 6.912q-0.064-0.064-0.128-0.064-0.064-0.064-0.128-0.128-0.128 0.128-0.32 0.192t-0.32 0.192-0.192 0.32q0 0.192-0.128 0.32 0.192 0 0.384 0.064 0.256 0 0.384-0.128t0.192-0.32q0.128-0.256 0.256-0.448zm-12.032 9.408q0.128 0.064 0.128 0.128 0.064 0 0.192 0.064 0.128-0.256 0.192-0.448 0.128-0.256 0.256-0.448-0.064 0-0.128-0.064t-0.128-0.064q0 0-0.064-0.064-0.192 0.256-0.448 0.896zm24.576-27.264q-0.832 0.832-1.664 1.6t-1.6 1.664q-0.384 0.384-0.704 0.832-0.256 0.448-0.576 0.96-0.064 0.064-0.128 0.192 0 0.064-0.128 0.128-1.216 0.576-1.792 1.664t-1.344 2.048q-0.256 0.32-0.512 0.64t-0.192 0.832q0 0.128-0.32 0.192t-0.64 0.064q3.968-6.144 9.344-11.072 0.064 0.192 0.256 0.256z"/>
    <path d="m659.97-298.12q0.128 1.088-0.32 1.92t-1.28 1.6q-0.448 0.512-1.024 0.96-0.512 0.384-1.024 0.896-0.512 0.384-0.768 0.832t-0.576 0.96q-0.32 0.768-1.024 0.768-0.32 0.128-0.576 0.448t-0.448 0.64q-0.32 0.512-0.64 0.96-0.32 0.384-0.896 0.576-0.256 0.128-0.384 0.448-0.512 0.64-0.832 0.704-0.32 0-0.832-0.448-1.024-0.768-1.28-2.112t0.256-2.624q1.216-2.304 2.368-4.608 1.216-2.304 2.496-4.608 0.256-0.64 0.704-1.28 0.448-0.896 0.896-1.024 0.512-0.128 1.728 0.192-0.192 0.128-0.384 0.256-0.128 0.128-0.256 0.256 0.192 0.32 0.256 0.256 0.768-0.192 1.344-0.064t1.088 0.704q0.128 0.256 0.192 0.448 0.128 0.128 0.128 0.32 0.064 0.32 0.128 0.512 0.064 0.128 0.384 0.384 0.32 0.32 0.448 0.832 0.192 0.512 0.128 0.896zm-14.144 14.848q0.896 0.512 1.472 1.28t1.152 1.536q0.128 0.256 0.256 0.576 0.128 0.256 0.064 0.576-0.128 0.704-0.192 1.472-0.064 0.704-0.384 1.536-0.576 0.96-1.28 1.792-0.64 0.832-1.152 1.792-0.384 0.896-0.832 1.856-0.384 0.896-0.832 1.792-0.064 0.256-0.192 0.576-0.128 0.256-0.256 0.576-0.256 0.32-0.448 0.768-0.128 0.384-0.448 0.704-0.256 0.704-0.768 1.408-0.32 0.448-0.64 0.832-0.256 0.32 0 0.896 0.128 0.192-0.128 0.576-0.192 0.384-0.512 0.512-0.704 0.576-0.384 1.28 0.32 0.512-0.128 0.64-0.384 0.128-0.576 0.448 0.128 0.128 0.192 0.192 0.064 0 0.192 0.064-0.192 0.32-0.448 0.704-0.192 0.32-0.384 0.768-0.512 0.832-1.024 1.984-0.128 0.256-0.192 0.576t0.064 0.512q0.32 0.576 0.064 1.088-0.384 0.384-0.384 0.896-0.064 0.384-0.128 0.64t-0.576 0.512q-0.064 0.064-0.064 0.384 0 0.256 0.064 0.576-0.32 0.32-0.448 0.576-0.064 0.256 0.256 0.704 0 0.128-0.064 0.384-0.064 0.192-0.064 0.448-0.128 0.704-0.256 1.472-0.064 0.704-0.192 1.408-0.32-0.064-0.576-0.064-0.192 0-0.448-0.064 0 0.128-0.064 0.192 0 0 0 0.064 0.192 0.128 0.384 0.256 0.256 0.064 0.512 0.192-0.128 0.512-0.128 1.152t-0.512 1.28q-0.128 0.128-0.128 0.384 0.064 0.192 0 0.32-0.064 0.256-0.128 0.448 0 0.192-0.128 0.32-0.576 0.448-0.448 0.896t0.256 0.96q0.064 0.32 0.128 0.64 0.128 0.384 0.128 0.768 0.128 0.896-0.704 0.576-1.216-0.448-2.176-1.152-0.96-0.64-1.216-1.984-0.128-1.216-0.384-2.432t-0.192-2.496q0.128-2.048 0.32-4.096 0.256-2.048 0.704-4.096 0.128-1.088 0.32-1.984 0.256-0.96 0.512-2.048 0.32-1.024 0.64-1.984 0.32-1.024 0.64-2.112 0.704-2.24 1.472-4.352 0.768-2.176 1.6-4.416 0.64-1.664 1.344-3.328 0.768-1.728 1.472-3.392 0.704-1.472 1.28-2.944 0.576-1.536 1.152-3.008 0.064-0.128 0.192-0.32t0.256-0.192q1.984-0.128 3.52 0.704zm-14.336 31.808q-0.064 0.32-0.128 0.64-0.064 0.256-0.128 0.576 0.192 0 0.448 0.128 0.064-0.32 0.064-0.576 0.064-0.256 0.128-0.576 0-0.064-0.128-0.064-0.128-0.064-0.256-0.128zm1.664 0.32q0.064-0.192 0-0.384-0.064-0.256-0.128-0.512-0.128 0.256-0.256 0.512-0.064 0.192-0.192 0.384v0.064q-0.32 1.344-0.576 2.688-0.256 1.28-0.064 2.688 0.064 0.064-0.192 0.384-0.128-0.448-0.192-0.896-0.064-0.512-0.256-1.024-0.064-0.192 0-0.384 0.128-0.256 0.192-0.448 0.064-0.256 0-0.448t-0.384-0.384q-0.128 1.472-0.192 2.88t-0.064 2.88q0.064 0.32 0.128 0.576 0.128 0.192 0.192 0.448 0.576-0.448 0.448-0.896-0.064-0.448-0.128-0.896 0-0.32 0.064-0.512 0.064-0.256 0.384-0.512 0.448-0.32 0.512-0.704 0.064-0.448-0.192-0.896 0.128-0.32 0.32-0.576 0.256-0.32 0.256-0.576-0.128-0.512-0.128-1.024 0.064-0.512 0.32-1.024 0.256-0.576 0.128-1.408zm2.112-5.952q0.576 0.128 0.704-0.064 0.192-0.192 0.064-0.512 0.064-0.128-0.064-0.192-0.064-0.064-0.192-0.192-0.192 0.256-0.32 0.512-0.064 0.192-0.192 0.448zm0.64-1.344q0.32 0 0.448-0.128 0.128-0.192 0.128-0.384 0.064-0.192 0.064-0.384 0.064-0.192 0.192-0.384-0.512-0.128-0.64-0.256-0.192-0.064-0.768-0.448-0.064 0.128-0.128 0.32-0.064 0.128-0.128 0.32-0.32 0.768-0.64 1.6t-0.576 1.728q-0.256 0.832-0.448 1.728-0.192 0.832-0.448 1.728-0.064 0.128 0 0.32 0.064 0.128 0.128 0.256 0.128-0.064 0.32-0.128t0.192-0.192q0-0.512 0.256-0.896 0.32-0.384 0.256-0.896-0.064-0.192 0.128-0.448 0.192-0.32 0.32-0.576 0.512-0.512 0.576-0.64-0.192-0.32-0.384-0.512-0.128-0.256-0.128-0.384 0.192-0.512 0.448-0.96 0.256-0.512 0.384-0.96 0.128 0.128 0.192 0.32 0.128 0.192 0.256 0.256zm0.832-1.792q0.32 0 0.448-0.576 0.128-0.64 0-1.216-1.088 0.256-1.216 0.448-0.128 0.128 0.064 0.64 0.064 0.256 0.256 0.448 0.256 0.192 0.448 0.256z"/>
    <path d="m700.61-270.16q0.448 0.512 0.256 1.024-0.128 0.448-0.256 0.96 0 0.128-0.064 0.192t-0.128 0.192l-1.536 2.496q-0.384 0.704-0.832 1.344-0.384 0.64-0.768 1.344-0.384 0.64-0.768 1.216-0.32 0.576-0.704 1.216-0.32 0.576-0.704 1.152-0.32 0.576-0.64 1.216-0.192 0.32-0.32 0.704-0.064 0.384-0.192 0.768-0.256 0.064-0.512 0.064 0.064 0.32 0.064 0.64 0.064 0.256 0.064 0.576 0 0.128-0.192 0.256-0.192 0.064-0.256 0.192-0.256 0.448-0.384 0.896t-0.64 0.768q-0.128 0.064-0.128 0.32 0.064 0.192 0 0.384-0.384 0.768-0.768 1.536t-0.704 1.6q-0.192 0.448-0.32 0.896-0.128 0.384-0.256 0.832v0.32q-0.512 0.384-0.576 0.96 0 0.576-0.192 1.088-0.256 0.704-0.576 1.472-0.256 0.704-0.512 1.408-0.192 0.64-0.384 1.28-0.128 0.64-0.256 1.344-0.064 0.32-0.128 0.64-0.064 0.384-0.064 0.704-0.064 0.192 0.064 0.704-0.128 0.064-0.256 0.128t-0.256 0.128q0.128 0.896 0.192 1.792 0.128 0.96-0.384 1.856 0.192 0.192 0.32 0.448t-0.128 0.64q-0.128 0.192-0.064 0.448 0.064 0.32 0.512 0.448 0.256 0.064 0.448 0.256t0.32 0.32q0 0.192-0.192 0.32t-0.384 0.192q-0.128 0.128-0.256 0.256-0.064 0.192 0.064 0.576-0.576-0.128-1.216-0.256-0.576-0.064-0.896-0.384-0.704-0.64-1.28-1.344t-1.024-1.472q-0.32-0.704-0.512-1.472t-0.384-1.536q-0.192-0.832-0.192-1.792 0-1.472 0.064-2.816 0.128-1.408 0.448-2.816 0.064-0.256-0.064-0.512-0.128-0.32-0.064-0.576 0.192-0.512 0.384-1.024 0.256-0.576 0.448-1.152 0.128-0.384 0.192-0.768 0.128-0.448 0.256-0.896 0.512-1.408 0.96-2.816t0.96-2.816q0.576-1.6 1.152-3.136 0.64-1.6 1.28-3.264 1.216-3.328 2.688-6.72 0.64-1.408 1.28-2.752 0.704-1.408 1.408-2.88 0.128-0.256 0.128-0.448 0-0.32-0.192-0.448t-0.448 0.128q-0.704 0.64-1.408 1.28t-1.472 1.216q-1.216 1.088-2.24 2.56-0.064 0.064-0.128 0.128-0.064 0-0.128 0.064-0.64 0.384-1.088 0.96-0.384 0.512-0.768 1.088-0.192 0.32-0.448 0.512t-0.512 0.512q-0.32 0.448-0.704 0.896-0.32 0.448-0.64 0.896-0.192 0.192-0.064 0.256 0.192 0.512-0.128 0.832t-0.576 0.64q-0.32 0.448-0.704 0.832-0.32 0.384-0.64 0.832-0.32 0.384-0.576 0.832-0.192 0.448-0.512 0.832-0.448 0.704-0.896 1.408t-0.896 1.408q-0.32 0.448-0.64 0.896-0.256 0.448-0.576 0.96-0.064 0.064-0.064 0.128 0 0-0.064 0.064-0.64 0.64-1.024 1.408-0.32 0.768-0.704 1.536-0.448 0.704-0.896 1.472-0.384 0.768-0.832 1.472-0.448 0.832-0.896 1.6-0.384 0.768-0.832 1.536-0.256 0.512-0.448 1.024t-0.512 0.96-0.704 0.832q-0.32 0.32-0.704 0.704-0.064 0.128-0.128 0.256 0 0.064-0.128 0.192v0.064q-0.128 0.192-0.32 0.384-0.128 0.192-0.32 0.512-0.256-0.064-0.64-0.128-0.384 0-0.704-0.256-0.512-0.32-0.96-0.768t-0.704-0.96q-0.256-0.64-0.576-1.28-0.32-0.704 0.192-1.472h-0.512q-0.064-0.32-0.128-0.576 0-0.32 0-0.576 0-0.32 0-0.64 0-0.384 0.064-0.704 0.064-0.448 0.128-0.832 0.064-0.448 0.128-0.896 0.128-0.384 0.128-0.832t0.128-0.832q0.576-2.048 1.152-3.968 0.576-1.984 1.152-4.032 0.128-0.256 0.384-0.896 0.512-1.28 0.96-2.496 0.512-1.28 1.024-2.56 0.448-1.088 0.896-2.112t0.96-2.112q0.704-1.536 1.408-3.072 0.768-1.6 1.472-3.136 0.576-1.152 1.152-2.24 0.576-1.152 1.152-2.304t1.152-2.304q0.64-1.152 1.216-2.304 0.128-0.256 0.32-0.512 0.256-0.256 0.384-0.512 0.256-0.512 0.256-0.832-0.704 0.384-1.216 0.96-0.448 0.576-0.96 1.216-0.064-0.064-0.128-0.064 0 0-0.064-0.064 0.128-0.256 0.256-0.512t0.32-0.512q0.768-0.704 1.536-1.408 0.768-0.768 1.536-1.536 0.32-0.32 0.512-0.704 0.192-0.448 0.448-0.832 0.32-0.576 0.832-0.512 0.384 0.128 0.768 0.256 0.384 0.064 0.896 0.192 0.512-0.32 0.832 0.064 0.384 0.384 0.768 0.768 0.512 0.576 1.088 1.088 0.192 0.192 0.192 0.256 0.192 0.96 0.64 1.792 0.512 0.832 0.384 1.92-0.192 0.576-0.64 1.28-0.384 0.512-0.832 1.024-0.384 0.512-0.704 1.024-0.32 0.448-0.576 0.896t-0.576 0.896q-0.128 0.192-0.256 0.384-0.064 0.192-0.256 0.32-0.64 0.32-0.832 0.896-0.128 0.512-0.256 1.088 0 0.256-0.192 0.32-0.448 0.32-0.64 0.768-0.192 0.384-0.384 0.832-0.256 0.512-0.64 1.024-0.384 0.448-0.704 0.96t-0.576 1.088q-0.256 0.512-0.512 1.088-0.32 0.576-0.64 1.216-0.256 0.576-0.576 1.216-0.064 0.128-0.128 0.256 0 0.064-0.064 0.128-0.512 0.32-0.704 0.704-0.128 0.384-0.256 0.832-0.064 0.128-0.576 0.512 0.064 0.128 0.064 0.256 0.064 0.064 0.128 0.192-0.128 0.192-0.32 0.448-0.192 0.192-0.32 0.448-0.064 0.128-0.128 0.32t-0.064 0.32q-0.128 0.32-0.256 0.64-0.064 0.32-0.576 0.192 0.448 0.896-0.384 1.472-0.128 0.128-0.128 0.448 0 0.256-0.128 0.448t-0.256 0.448q-0.128 0.192-0.256 0.192-0.512-0.128-0.576 0.128 0 0.192 0.128 0.384-0.256 0.128-0.512 0.256-0.192 0.128-0.384 0.256 0.192 0.128 0.32 0.32 0.192 0.128 0.384 0.256-0.064 0.128-0.128 0.384-0.064 0.192-0.192 0.512h-0.064q-0.064 0-0.128 0.064 0 0-0.064 0-0.32 0.192-0.384 0.256 0 0.064 0 0.192 0.064 0.128 0.192 0.192 0.448 0.384 0 0.832-0.512 0.384-0.64 0.96-0.064 0.576-0.256 1.088-0.064 0.128-0.128 0.32 0 0.192-0.128 0.32-0.512 0.384-0.64 0.96-0.128 0.512-0.448 1.024-0.064 0.064 0.128 0.448 0.192-0.32 0.32-0.512 0.128-0.256 0.256-0.512 0.32-0.448 0.512-0.832 0.192-0.448 0.512-0.896 0.32-0.512 0.704-0.96 0.384-0.512 0.704-1.024 0.256-0.32 0.384-0.576 0.192-0.32 0.384-0.64 0.32-0.576 0.576-1.216t0.768-1.024q0.512-0.448 0.64-0.96 0.192-0.576 0.64-1.024 0.384-0.512 0.704-1.024 0.384-0.512 0.768-1.024 0.128-0.192 0.384-0.384t0.576 0.128q0.128 0.064 0.32 0t0.192-0.192q0.128-0.384 0.384-0.576 0.256-0.256 0.576-0.512 0.384-0.32 0.64-0.704 0.32-0.448 0.64-0.832 0.064-0.064 0.064-0.128 0.064-0.064 0.192-0.192 0.192-0.32 0.448-0.448t0.64 0.384q-0.512-0.512-0.256-0.832t0.576-0.64q0.768-0.704 1.472-1.408 0.768-0.768 1.536-1.536 0.448-0.512 0.896-0.96t0.96-0.96q0.192-0.192 0.448-0.32 0.256-0.192 0.512-0.384 0.192-0.128 0.576-0.512 0.128-0.128 0.256-0.256 0.192-0.128 0.512 0.064 0 0 0.384-0.128-0.128-0.128-0.256-0.192t-0.256-0.192q0.128-0.128 0.384-0.512-0.128-0.064-0.256-0.064-0.128-0.064-0.32-0.192h1.408q0.064-0.064 0.064-0.128-0.384-0.256-0.64-0.384 0.128-0.064 0.192-0.128 0.128-0.128 0.256-0.064 0.512 0.128 0.768-0.128 0.32-0.32 0.64-0.64 0.64-0.768 1.472-0.384 0.256 0.064 0.896 0.192 0.128 0.064 0.256 0.064 0.192 0 0.128 0.32 0 0.064 0.128 0.192 0.192 0.064 0.32 0 0.704-0.128 1.024 0.256 0.384 0.384 0.832 0.704 0.32 0.32 0.512 0.768 0.256 0.384 0.576 0.704 0.576 0.576 0.64 1.216t0.192 1.344q0 0.32 0 0.32zm-34.432 23.616q0.192-0.768 0.448-1.536-0.448 0-0.64 0.064-0.064 0-0.128 0.128t-0.064 0.256q-0.128 0.512-0.192 1.088 0 0.512-0.064 1.152 0.448-0.128 0.448-0.448 0.064-0.384 0.192-0.704zm1.408-5.504q0.512-0.384-0.128-0.896-0.256 0.384-0.256 0.448 0.128 0.32-0.064 0.512-0.192 0.128-0.32 0.32-0.32 0.32-0.32 0.896 0 0.448-0.128 0.832t-0.256 0.832q0 0.128 0.064 0.32 0.064 0.128 0.128 0.384 0.32-0.448 0.448-0.704 0.192-0.32 0.32-0.64 0 0 0-0.256 0-0.512 0-1.024 0-0.576 0.512-1.024zm0.64-3.072q0.32-0.192 0.384-0.256 0.256-0.448 0.32-0.896 0-0.064-0.128-0.512-0.128 0-0.128 0.064l-0.576 1.152q-0.064 0.128 0.128 0.448zm0.832 5.824q0.128-0.32 0.256-0.512t0.256-0.384q0 0-0.32-0.32-0.128 0.192-0.256 0.384-0.064 0.192-0.192 0.448 0.064 0 0.256 0.384zm1.536-4.608q0.192-0.384 0.32-0.704 0.192-0.32 0.32-0.64-1.152 0.256-0.64 1.344zm-6.976-9.984q0.128 0 0.64 0.192-0.448 0.512-0.896 1.088-0.384 0.512-0.768 1.024-0.128 0.192-0.128 0.448 0.064 0.192-0.064 0.384-0.384 0.704-0.768 1.344-0.32 0.64-0.768 1.344-0.128 0.32-0.384 0.576-0.192 0.256-0.384 0.576-0.32 0.448-0.576 0.896-0.192 0.384-0.448 0.832-0.896 1.472-1.792 2.944t-1.792 2.944q-0.448 0.896-0.96 1.408t-1.408 0.96q-0.128 0.064-0.32 0-0.128-0.064-0.256-0.128-0.256-0.064-0.448-0.128t-0.448-0.192q-0.512-0.192-0.704-0.64t-0.32-0.96q-0.192-0.448-0.576-0.832-0.192-0.192-0.192-0.576 0-0.448 0-0.832-0.192-0.128-0.32-0.448-0.128-0.384-0.64-0.128l-0.128-0.128q-0.064-0.064-0.192-0.32t-0.192-0.512-0.192-0.512q-0.064-0.192-0.128-0.384-0.128-0.256-0.064-0.384 0.384-1.088 0.768-2.048 0.384-1.024 0.704-2.112t0.64-2.048q0.32-1.024 0.64-2.112t0.576-2.112 0.512-2.112q0.384-2.048 0.768-4.096 0.384-2.112 0.704-4.16 0.384-2.624 0.256-5.568 0-1.088-0.32-2.048-0.256-1.024-1.216-1.728-0.64-0.512-0.256-1.344 0.512 0 0.768 0.064 0.384 0.128 0.768 0.192 0.448 0 0.896 0 0.512 0.128 0.96 0.448 0.512 0.256 1.024 0.512 0.256 0.128 0.64 0.384 0.128 0 0.128 0.064 0.512 0.832 1.216 1.536 0.768 0.704 0.896 1.856 0 0.512 0.128 1.024 0.192 0.448 0.256 0.96 0.128 0.704 0.192 1.472 0.064 0.704 0.128 1.408 0.064 0.576 0.064 1.152 0 0.512 0 1.088 0 0.32-0.064 0.64 0 0.256-0.064 0.576-0.128 0.64-0.192 1.28-0.064 0.576-0.192 1.152 0 0.256-0.128 0.256-0.64 0.064-0.576 0.32 0.128 0.256 0.192 0.576 0.064 0.384-0.064 1.024 0 0.064-0.064 0.128 0 0 0 0.064 0.192 0.512-0.128 0.704-0.256 0.128-0.64 0.256 0.512 0.448 0.512 0.896 0 0.384-0.256 0.896-0.128 0.192-0.192 0.448 0 0.192-0.064 0.384-0.128 0.256-0.256 0.576-0.064 0.256-0.192 0.64t-0.128 1.024q0.064 1.024-0.448 1.856-0.32 0.448-0.384 1.024t-0.192 1.088q0.064 0.064 0.128 0.064t0.128 0.064q0.512-0.64 0.832-1.088 0.704-1.088 1.408-2.176 0.768-1.088 1.472-2.176 0.512-0.832 1.024-1.6 0.512-0.832 1.024-1.664 0.448-0.64 0.832-1.216 0.384-0.64 0.832-1.28 0.128-0.128 0.192-0.192t0.192-0.192q0.128 0.128 0.128 0.128-0.704 1.088-1.408 2.176t-1.472 2.304q0.256-0.064 0.576-0.32 0.384-0.32 0.64-0.64 0.32-0.384 0.512-0.704 0.256-0.32 0.256-0.512 0.128-0.192 0.256-0.384 0.128-0.256 0.256-0.448 0.384-0.512 0.768-0.896t0.704-0.896q0.32-0.448 0.64-0.832 0.32-0.448 0.64-0.96 0.128-0.192 0.32-0.384 0.256-0.192 0.448-0.384 0.256-0.32 0.448-0.64t0.448-0.64q0.512-0.64 0.96-1.216t0.96-1.216q0.576-0.768 1.088-1.472 0.576-0.768 1.088-1.536 0.256-0.128 0.384-0.256 0.256-0.128 0.448-0.32 0.512-0.64 1.024-1.28 0.576-0.64 1.088-1.28l0.96-1.152q0.128-0.128 0.256-0.128 0.192 0 0.32-0.064 0 0.128 0.128 0.128-0.192 0.32-0.384 0.576t-0.384 0.512q-0.576 0.704-1.216 1.472-0.576 0.704-1.152 1.408-0.576 0.768-1.152 1.536t-1.216 1.472q-0.32 0.512-0.704 1.024t-0.704 1.024q-0.64 0.896-1.216 1.728-0.512 0.832-1.088 1.728-0.384 0.512-0.832 1.088-0.384 0.512-0.768 1.088-0.128 0.192-0.384 0.704-0.576 0.896-1.216 1.792-0.576 0.896-1.216 1.792zm17.792-1.408q0.256-0.32 0.512-0.576 0.32-0.256 0.704-0.576-0.064 0.192-0.064 0.384t-0.128 0.32q-0.256 0.32-0.576 0.576-0.32 0.192-0.576 0.512-0.32 0.448-0.64 0.896t-0.64 0.896q-0.128 0.192-0.448 0.32 0-0.256 0-0.256 0.512-0.64 0.896-1.216 0.448-0.64 0.96-1.28zm2.432-2.816q-0.128 1.344-1.216 1.344 0.384-0.384 0.64-0.704t0.576-0.64zm1.728-1.28q-0.128-0.128-0.192-0.256 0.32-0.192 0.512-0.384 0.256-0.256 0.512-0.448l0.192 0.192q-0.256 0.256-0.512 0.448-0.192 0.192-0.512 0.448zm-20.48-0.32q-0.064-0.064-0.064-0.064 0-0.064-0.064-0.128 0.256-0.256 0.448-0.512 0.256-0.256 0.512-0.576 0 0 0.128 0.128z"/>
    <path d="m730.82-298.12q0.128 1.088-0.32 1.92t-1.28 1.6q-0.448 0.512-1.024 0.96-0.512 0.384-1.024 0.896-0.512 0.384-0.768 0.832t-0.576 0.96q-0.32 0.768-1.024 0.768-0.32 0.128-0.576 0.448t-0.448 0.64q-0.32 0.512-0.64 0.96-0.32 0.384-0.896 0.576-0.256 0.128-0.384 0.448-0.512 0.64-0.832 0.704-0.32 0-0.832-0.448-1.024-0.768-1.28-2.112t0.256-2.624q1.216-2.304 2.368-4.608 1.216-2.304 2.496-4.608 0.256-0.64 0.704-1.28 0.448-0.896 0.896-1.024 0.512-0.128 1.728 0.192-0.192 0.128-0.384 0.256-0.128 0.128-0.256 0.256 0.192 0.32 0.256 0.256 0.768-0.192 1.344-0.064t1.088 0.704q0.128 0.256 0.192 0.448 0.128 0.128 0.128 0.32 0.064 0.32 0.128 0.512 0.064 0.128 0.384 0.384 0.32 0.32 0.448 0.832 0.192 0.512 0.128 0.896zm-14.144 14.848q0.896 0.512 1.472 1.28t1.152 1.536q0.128 0.256 0.256 0.576 0.128 0.256 0.064 0.576-0.128 0.704-0.192 1.472-0.064 0.704-0.384 1.536-0.576 0.96-1.28 1.792-0.64 0.832-1.152 1.792-0.384 0.896-0.832 1.856-0.384 0.896-0.832 1.792-0.064 0.256-0.192 0.576-0.128 0.256-0.256 0.576-0.256 0.32-0.448 0.768-0.128 0.384-0.448 0.704-0.256 0.704-0.768 1.408-0.32 0.448-0.64 0.832-0.256 0.32 0 0.896 0.128 0.192-0.128 0.576-0.192 0.384-0.512 0.512-0.704 0.576-0.384 1.28 0.32 0.512-0.128 0.64-0.384 0.128-0.576 0.448 0.128 0.128 0.192 0.192 0.064 0 0.192 0.064-0.192 0.32-0.448 0.704-0.192 0.32-0.384 0.768-0.512 0.832-1.024 1.984-0.128 0.256-0.192 0.576t0.064 0.512q0.32 0.576 0.064 1.088-0.384 0.384-0.384 0.896-0.064 0.384-0.128 0.64t-0.576 0.512q-0.064 0.064-0.064 0.384 0 0.256 0.064 0.576-0.32 0.32-0.448 0.576-0.064 0.256 0.256 0.704 0 0.128-0.064 0.384-0.064 0.192-0.064 0.448-0.128 0.704-0.256 1.472-0.064 0.704-0.192 1.408-0.32-0.064-0.576-0.064-0.192 0-0.448-0.064 0 0.128-0.064 0.192 0 0 0 0.064 0.192 0.128 0.384 0.256 0.256 0.064 0.512 0.192-0.128 0.512-0.128 1.152t-0.512 1.28q-0.128 0.128-0.128 0.384 0.064 0.192 0 0.32-0.064 0.256-0.128 0.448 0 0.192-0.128 0.32-0.576 0.448-0.448 0.896t0.256 0.96q0.064 0.32 0.128 0.64 0.128 0.384 0.128 0.768 0.128 0.896-0.704 0.576-1.216-0.448-2.176-1.152-0.96-0.64-1.216-1.984-0.128-1.216-0.384-2.432t-0.192-2.496q0.128-2.048 0.32-4.096 0.256-2.048 0.704-4.096 0.128-1.088 0.32-1.984 0.256-0.96 0.512-2.048 0.32-1.024 0.64-1.984 0.32-1.024 0.64-2.112 0.704-2.24 1.472-4.352 0.768-2.176 1.6-4.416 0.64-1.664 1.344-3.328 0.768-1.728 1.472-3.392 0.704-1.472 1.28-2.944 0.576-1.536 1.152-3.008 0.064-0.128 0.192-0.32t0.256-0.192q1.984-0.128 3.52 0.704zm-14.336 31.808q-0.064 0.32-0.128 0.64-0.064 0.256-0.128 0.576 0.192 0 0.448 0.128 0.064-0.32 0.064-0.576 0.064-0.256 0.128-0.576 0-0.064-0.128-0.064-0.128-0.064-0.256-0.128zm1.664 0.32q0.064-0.192 0-0.384-0.064-0.256-0.128-0.512-0.128 0.256-0.256 0.512-0.064 0.192-0.192 0.384v0.064q-0.32 1.344-0.576 2.688-0.256 1.28-0.064 2.688 0.064 0.064-0.192 0.384-0.128-0.448-0.192-0.896-0.064-0.512-0.256-1.024-0.064-0.192 0-0.384 0.128-0.256 0.192-0.448 0.064-0.256 0-0.448t-0.384-0.384q-0.128 1.472-0.192 2.88t-0.064 2.88q0.064 0.32 0.128 0.576 0.128 0.192 0.192 0.448 0.576-0.448 0.448-0.896-0.064-0.448-0.128-0.896 0-0.32 0.064-0.512 0.064-0.256 0.384-0.512 0.448-0.32 0.512-0.704 0.064-0.448-0.192-0.896 0.128-0.32 0.32-0.576 0.256-0.32 0.256-0.576-0.128-0.512-0.128-1.024 0.064-0.512 0.32-1.024 0.256-0.576 0.128-1.408zm2.112-5.952q0.576 0.128 0.704-0.064 0.192-0.192 0.064-0.512 0.064-0.128-0.064-0.192-0.064-0.064-0.192-0.192-0.192 0.256-0.32 0.512-0.064 0.192-0.192 0.448zm0.64-1.344q0.32 0 0.448-0.128 0.128-0.192 0.128-0.384 0.064-0.192 0.064-0.384 0.064-0.192 0.192-0.384-0.512-0.128-0.64-0.256-0.192-0.064-0.768-0.448-0.064 0.128-0.128 0.32-0.064 0.128-0.128 0.32-0.32 0.768-0.64 1.6t-0.576 1.728q-0.256 0.832-0.448 1.728-0.192 0.832-0.448 1.728-0.064 0.128 0 0.32 0.064 0.128 0.128 0.256 0.128-0.064 0.32-0.128t0.192-0.192q0-0.512 0.256-0.896 0.32-0.384 0.256-0.896-0.064-0.192 0.128-0.448 0.192-0.32 0.32-0.576 0.512-0.512 0.576-0.64-0.192-0.32-0.384-0.512-0.128-0.256-0.128-0.384 0.192-0.512 0.448-0.96 0.256-0.512 0.384-0.96 0.128 0.128 0.192 0.32 0.128 0.192 0.256 0.256zm0.832-1.792q0.32 0 0.448-0.576 0.128-0.64 0-1.216-1.088 0.256-1.216 0.448-0.128 0.128 0.064 0.64 0.064 0.256 0.256 0.448 0.256 0.192 0.448 0.256z"/>
   </g>
   <text transform="matrix(.75 0 0 -.75 1.0523 597.04)" font-family="'Abyssinica SIL'" font-size="40px" style="line-height:1.25;shape-inside:url(#rect8891);white-space:pre" xml:space="preserve"/>
  </g>
 </g>
</svg>
